<svg xmlns="http://www.w3.org/2000/svg" xmlns:xlink="http://www.w3.org/1999/xlink" width="1080" zoomAndPan="magnify" viewBox="0 0 810 809.999993" height="1080" preserveAspectRatio="xMidYMid meet" version="1.0"><defs><clipPath id="bfd01c5282"><path d="M 33.0625 732 L 777 732 L 777 810 L 33.0625 810 Z M 33.0625 732 " clip-rule="nonzero"/></clipPath><clipPath id="ba35527b43"><path d="M 349.5 445.5 L 460.5 445.5 L 460.5 552.5 L 349.5 552.5 Z M 349.5 445.5 " clip-rule="nonzero"/></clipPath></defs><rect x="-81" width="972" fill="#ffffff" y="-80.999999" height="971.999992" fill-opacity="1"/><rect x="-81" width="972" fill="#ffffff" y="-80.999999" height="971.999992" fill-opacity="1"/><path fill="#0a223d" d="M 404.777344 673.175781 C 401.292969 673.175781 397.808594 671.867188 395.628906 669.253906 L 181.242188 448.769531 C 177.320312 445.28125 176.449219 439.617188 178.191406 434.824219 C 180.371094 430.03125 185.164062 426.546875 190.394531 426.546875 L 315.886719 426.546875 L 315.886719 94.074219 C 315.886719 86.664062 321.988281 81 328.960938 81 L 480.597656 81 C 488.007812 81 493.671875 86.664062 493.671875 94.074219 L 493.671875 426.546875 L 619.601562 426.546875 C 624.828125 426.546875 629.621094 430.03125 631.367188 434.824219 C 633.542969 439.617188 632.238281 445.28125 628.75 448.769531 L 414.363281 669.253906 C 411.75 671.867188 408.265625 673.175781 404.777344 673.175781 Z M 404.777344 673.175781 " fill-opacity="1" fill-rule="nonzero"/><g clip-path="url(#bfd01c5282)"><path fill="#0a223d" d="M 737.6875 810 L 71.871094 810 C 50.519531 810 33.089844 792.570312 33.089844 771.21875 C 33.089844 749.429688 50.519531 732 71.871094 732 L 737.6875 732 C 759.472656 732 776.90625 749.429688 776.90625 771.21875 C 776.90625 792.570312 759.472656 810 737.6875 810 Z M 737.6875 810 " fill-opacity="1" fill-rule="nonzero"/></g><g clip-path="url(#ba35527b43)"><path fill="#0a223d" d="M 349.5 445.5 L 460.679688 445.5 L 460.679688 552.5 L 349.5 552.5 Z M 349.5 445.5 " fill-opacity="1" fill-rule="nonzero"/></g></svg>