<svg xmlns="http://www.w3.org/2000/svg" xmlns:xlink="http://www.w3.org/1999/xlink" width="1080" zoomAndPan="magnify" viewBox="0 0 810 809.999993" height="1080" preserveAspectRatio="xMidYMid meet" version="1.0"><defs><clipPath id="f3615ee633"><path d="M 283.5 533.5 L 526.5 533.5 L 526.5 776.5 L 283.5 776.5 Z M 283.5 533.5 " clip-rule="nonzero"/></clipPath><clipPath id="6d22c8939d"><path d="M 405 533.5 C 337.898438 533.5 283.5 587.898438 283.5 655 C 283.5 722.101562 337.898438 776.5 405 776.5 C 472.101562 776.5 526.5 722.101562 526.5 655 C 526.5 587.898438 472.101562 533.5 405 533.5 Z M 405 533.5 " clip-rule="nonzero"/></clipPath><clipPath id="982ce0c8f6"><path d="M 108 520 L 701.933594 520 L 701.933594 810 L 108 810 Z M 108 520 " clip-rule="nonzero"/></clipPath></defs><rect x="-81" width="972" fill="#ffffff" y="-80.999999" height="971.999992" fill-opacity="1"/><rect x="-81" width="972" fill="#ffffff" y="-80.999999" height="971.999992" fill-opacity="1"/><g clip-path="url(#f3615ee633)"><g clip-path="url(#6d22c8939d)"><path fill="#ec8414" d="M 283.5 533.5 L 526.5 533.5 L 526.5 776.5 L 283.5 776.5 Z M 283.5 533.5 " fill-opacity="1" fill-rule="nonzero"/></g></g><g clip-path="url(#982ce0c8f6)"><path fill="#272726" d="M 701.617188 810.078125 L 673.460938 607.992188 C 667.691406 575.222656 632.539062 553.121094 596.003906 548.410156 C 547.121094 542.117188 453.84375 520.925781 404.890625 520.925781 C 355.96875 520.925781 259.859375 542.601562 213.902344 548.410156 C 177.351562 553.03125 142.1875 575.222656 136.417969 607.992188 L 108.203125 810.078125 L 701.617188 810.078125 " fill-opacity="1" fill-rule="nonzero"/></g><path fill="#f1ceac" d="M 474.714844 528.101562 L 474.714844 433.785156 L 335.089844 433.785156 L 335.089844 528.125 C 328.890625 529.054688 322.597656 530.054688 316.285156 531.078125 C 314.234375 536.070312 313.140625 541.34375 313.140625 546.789062 C 313.140625 580.167969 354.226562 607.253906 404.914062 607.253906 C 455.578125 607.253906 496.671875 580.167969 496.671875 546.789062 C 496.671875 541.359375 495.578125 536.070312 493.535156 531.0625 C 487.214844 530.03125 480.921875 529.035156 474.714844 528.101562 " fill-opacity="1" fill-rule="nonzero"/><path fill="#deaa7c" d="M 335.058594 433.5625 L 335.058594 489.191406 C 345.621094 507.203125 380.371094 560.007812 419.371094 548.535156 C 440.367188 542.355469 459.265625 533.058594 474.683594 527.320312 L 474.683594 433.5625 L 335.058594 433.5625 " fill-opacity="1" fill-rule="nonzero"/><path fill="#f1ceac" d="M 530.527344 336.867188 C 538.699219 320.125 568.960938 306.046875 570.128906 345.847656 C 570.613281 362.347656 564.003906 381.316406 551.359375 389.578125 C 544.023438 394.355469 534.84375 396.691406 526.03125 395.265625 C 503.0625 391.539062 530.527344 336.867188 530.527344 336.867188 " fill-opacity="1" fill-rule="nonzero"/><path fill="#f1ceac" d="M 278.101562 336.867188 C 269.945312 320.125 239.683594 306.046875 238.515625 345.847656 C 238.03125 362.347656 244.632812 381.316406 257.285156 389.578125 C 264.605469 394.355469 273.800781 396.691406 282.597656 395.265625 C 305.566406 391.539062 278.101562 336.867188 278.101562 336.867188 " fill-opacity="1" fill-rule="nonzero"/><path fill="#f1ceac" d="M 537.816406 272.320312 C 542.902344 302.164062 544.175781 387.042969 525.984375 419.84375 C 507.777344 452.625 469.636719 517.46875 418.558594 530.007812 C 410.476562 531.992188 400.34375 533.113281 389.566406 530.007812 C 340.199219 515.710938 300.359375 452.625 282.144531 419.84375 C 263.945312 387.042969 270.320312 302.589844 270.320312 272.320312 C 270.320312 272.320312 299.675781 177.355469 404.070312 189.121094 C 508.457031 200.882812 529.628906 224.429688 537.816406 272.320312 " fill-opacity="1" fill-rule="nonzero"/><path fill="#181615" d="M 616.898438 810.078125 L 616.898438 688.175781 L 628.042969 810.078125 Z M 616.898438 810.078125 " fill-opacity="1" fill-rule="nonzero"/><path fill="#181615" d="M 192.898438 810.078125 L 192.898438 688.175781 L 181.753906 810.078125 Z M 192.898438 810.078125 " fill-opacity="1" fill-rule="nonzero"/><path fill="#deaa7c" d="M 537.816406 272.320312 C 529.628906 224.429688 508.457031 200.882812 404.070312 189.121094 C 299.675781 177.355469 270.320312 272.320312 270.320312 272.320312 C 270.320312 287.097656 268.808594 314.796875 269.367188 343.097656 C 273.464844 345.839844 277.894531 348.117188 282.445312 350.011719 C 308.777344 361 338.453125 359.988281 366.839844 357.035156 C 395.21875 354.09375 423.898438 349.40625 452.113281 353.664062 C 480.324219 357.921875 508.792969 373.089844 520.332031 399.191406 C 522.960938 405.128906 524.664062 411.476562 527.222656 417.433594 C 544.109375 383.078125 542.789062 301.472656 537.816406 272.320312 " fill-opacity="1" fill-rule="nonzero"/><path fill="#1a1b1c" d="M 556.546875 276.730469 C 552.121094 323.449219 537.71875 378.214844 537.054688 382.148438 C 537.054688 358.6875 527.539062 312.140625 537.054688 258.535156 C 538.5625 250.039062 556.546875 276.730469 556.546875 276.730469 " fill-opacity="1" fill-rule="nonzero"/><path fill="#1a1b1c" d="M 253.25 276.730469 C 257.675781 323.449219 272.082031 378.214844 272.742188 382.148438 C 272.742188 358.6875 282.257812 312.140625 272.742188 258.535156 C 271.234375 250.039062 253.25 276.730469 253.25 276.730469 " fill-opacity="1" fill-rule="nonzero"/><path fill="#fbd133" d="M 405.175781 298.691406 C 529.574219 296.050781 566.140625 295.886719 565.933594 272.152344 C 460.519531 246.351562 349.292969 246.351562 243.878906 272.152344 C 243.6875 296.082031 277.152344 296.042969 405.175781 298.691406 " fill-opacity="1" fill-rule="nonzero"/><path fill="#ddaf2a" d="M 405.152344 81.007812 C 316.359375 81.007812 244.378906 146.964844 244.378906 274.433594 L 565.933594 274.433594 C 565.933594 145.9375 493.953125 81.007812 405.152344 81.007812 " fill-opacity="1" fill-rule="nonzero"/><path fill="#fbd133" d="M 417.691406 81.492188 C 413.550781 81.199219 409.378906 81.007812 405.152344 81.007812 C 400.765625 81.007812 396.425781 81.214844 392.125 81.53125 L 392.125 214.476562 L 417.691406 214.476562 L 417.691406 81.492188 " fill-opacity="1" fill-rule="nonzero"/><path fill="#fbd133" d="M 305.628906 184.777344 C 306.113281 184.886719 306.597656 184.933594 307.074219 184.933594 C 310.253906 184.933594 313.109375 182.613281 313.800781 179.222656 C 322.53125 136.277344 331.710938 112.878906 348.980469 90.773438 C 340.382812 93.96875 332.140625 97.957031 324.3125 102.699219 C 313.957031 121.457031 306.980469 143.554688 300.335938 176.210938 C 299.542969 180.113281 301.917969 183.941406 305.628906 184.777344 " fill-opacity="1" fill-rule="nonzero"/><path fill="#fbd133" d="M 496.019531 179.222656 C 496.710938 182.613281 499.566406 184.933594 502.738281 184.933594 C 503.214844 184.933594 503.699219 184.886719 504.183594 184.777344 C 507.902344 183.941406 510.277344 180.113281 509.476562 176.210938 C 502.746094 143.101562 495.671875 120.847656 485.078125 101.921875 C 477.257812 97.3125 469.0625 93.417969 460.488281 90.328125 C 477.988281 112.566406 487.222656 135.984375 496.019531 179.222656 " fill-opacity="1" fill-rule="nonzero"/><path fill="#fbd133" d="M 417.691406 199.449219 L 392.125 199.449219 L 370.238281 221.308594 L 370.238281 275.75 L 439.585938 275.75 L 439.585938 221.308594 L 417.691406 199.449219 " fill-opacity="1" fill-rule="nonzero"/><path fill="#f68712" d="M 593.214844 753.394531 L 593.214844 548.035156 C 571.449219 545.09375 541.757812 539.515625 511.214844 534.171875 L 413.195312 810.078125 L 616.898438 810.078125 L 616.898438 792.753906 C 602.839844 785.222656 593.214844 770.382812 593.214844 753.394531 Z M 396.625 810.078125 L 192.898438 810.078125 L 192.898438 792.761719 C 206.964844 785.238281 216.597656 770.390625 216.597656 753.394531 L 216.597656 548.050781 C 237.449219 545.261719 267.457031 539.605469 298.597656 534.171875 L 396.625 810.078125 " fill-opacity="1" fill-rule="nonzero"/><path fill="#fbd133" d="M 490.753906 810.078125 L 514.894531 810.078125 L 571.6875 544.753906 C 564.335938 543.539062 556.523438 542.1875 548.402344 540.757812 L 490.753906 810.078125 " fill-opacity="1" fill-rule="nonzero"/><path fill="#fbd133" d="M 294.925781 810.078125 L 319.058594 810.078125 L 261.410156 540.757812 C 253.234375 542.203125 245.414062 543.5625 238.132812 544.769531 L 294.925781 810.078125 " fill-opacity="1" fill-rule="nonzero"/></svg>