<svg id="Capa_3" data-name="Capa 3" xmlns="http://www.w3.org/2000/svg" viewBox="0 0 880.17 442.61"><defs><style>.cls-1{fill:#a1aaad;}.cls-2{fill:#c8102d;}.cls-3{fill:#0a233e;}.cls-4{fill:none;}</style></defs><title>JEMO CONTRACTOR LLC full color</title><path class="cls-1" d="M215.08,367.35v-8.5h-25v8.5h1.38V390L169.9,363.79v-4.87h-25v8.5h2.27v51.85H144.9v8.5h25v-8.5h-1V396.38L190.08,422v5.68h25v-8.5h-1.92V367.35Zm-5.54,51.85H192.43l-23.49-28.5v-4.38h-3.61v32.95H150.79V367.42H168.2l23.26,28.21v5.27h3.62V367.35h14.46Z"/><polygon class="cls-2" points="212.28 365.58 212.28 361.07 209.79 361.07 195.05 361.07 192.43 361.07 192.43 365.58 195.05 365.58 195.05 400.21 166.69 365.58 166.79 365.58 166.79 361.07 163 361.07 150.65 361.07 146.94 361.07 146.94 365.58 150.65 365.58 150.65 421.04 148.21 421.04 148.21 425.55 150.65 425.55 165.39 425.55 168.07 425.55 168.07 421.04 165.39 421.04 165.39 386.4 193.84 421.04 192.43 421.04 192.43 425.55 197.54 425.55 209.79 425.55 212.28 425.55 212.28 421.04 209.79 421.04 209.79 365.58 212.28 365.58"/><path class="cls-1" d="M86.92,423A35.32,35.32,0,0,1,73,409.84,36.26,36.26,0,0,1,86.92,359a41.52,41.52,0,0,1,20-4.77,41.23,41.23,0,0,1,19.9,4.77,35.58,35.58,0,0,1,19,32,35.58,35.58,0,0,1-19,32,41.12,41.12,0,0,1-19.9,4.78A41.41,41.41,0,0,1,86.92,423Zm28.75-16.63a16,16,0,0,0,6.17-6.24,19.67,19.67,0,0,0,0-18.23,16.12,16.12,0,0,0-6.17-6.25,18.46,18.46,0,0,0-17.59,0,16.12,16.12,0,0,0-6.17,6.25,19.67,19.67,0,0,0,0,18.23,16,16,0,0,0,6.17,6.24,18.39,18.39,0,0,0,17.59,0Z"/><path class="cls-2" d="M88.77,420a32.16,32.16,0,0,1-12.62-11.93,34.29,34.29,0,0,1,0-34.17A32.09,32.09,0,0,1,88.77,362a37.63,37.63,0,0,1,18.11-4.33A37.31,37.31,0,0,1,124.93,362a32.89,32.89,0,0,1,0,58,37.31,37.31,0,0,1-18.05,4.33A37.63,37.63,0,0,1,88.77,420Zm28.42-11a18.84,18.84,0,0,0,7.23-7.32,23,23,0,0,0,0-21.37,18.87,18.87,0,0,0-7.23-7.33,21.62,21.62,0,0,0-20.63,0,18.87,18.87,0,0,0-7.23,7.33,23,23,0,0,0,0,21.37A18.84,18.84,0,0,0,96.56,409a21.54,21.54,0,0,0,20.63,0Z"/><path class="cls-1" d="M75.29,415.51,57,398.46l-5.79,6.22,1.57,1.46a17.19,17.19,0,0,1-8.92,2.37,18.16,18.16,0,0,1-9.06-2.23,15.81,15.81,0,0,1-6.22-6.21,19.62,19.62,0,0,1,0-18.13,15.81,15.81,0,0,1,6.22-6.21,18.16,18.16,0,0,1,9.06-2.23,17.3,17.3,0,0,1,8.8,2.27l-1.74,1.63,5.8,6.22L75,366.57l-5.8-6.22-1.94,1.81a34.22,34.22,0,0,0-7.74-4.67,41.33,41.33,0,0,0-16.7-3.25A41.07,41.07,0,0,0,23.07,359a35.32,35.32,0,0,0-13.81,13.1,38.24,38.24,0,0,0,0,37.88A35.18,35.18,0,0,0,23.07,423a40.85,40.85,0,0,0,19.66,4.73,41.88,41.88,0,0,0,16.75-3.25,33.52,33.52,0,0,0,7.88-4.79l2.14,2,1.14-1.23,0,0,3.4-3.64,0,0Z"/><path class="cls-2" d="M54.71,405.46l1.74,1.63a20.07,20.07,0,0,1-13.05,4.55A21.51,21.51,0,0,1,32.72,409a18.67,18.67,0,0,1-7.32-7.32,23,23,0,0,1,0-21.37A18.69,18.69,0,0,1,32.72,373a21.51,21.51,0,0,1,10.68-2.62,20.21,20.21,0,0,1,13,4.47l-1.72,1.6,3.08,3.3L71,367.43l-3.07-3.3-1.85,1.72a30.51,30.51,0,0,0-8.24-5.24,37.47,37.47,0,0,0-15.15-2.95,37.31,37.31,0,0,0-17.92,4.28,32.06,32.06,0,0,0-12.53,11.88,34.64,34.64,0,0,0,0,34.36,32,32,0,0,0,12.53,11.89,37.09,37.09,0,0,0,17.83,4.28,37.8,37.8,0,0,0,15.19-3,30,30,0,0,0,8.32-5.32l1.83,1.69,3.07-3.3-13.2-12.31Z"/><path class="cls-1" d="M668.12,341.37h.18a11,11,0,0,0,.44-1.71c0-.08,0-.17,0-.26C668.57,340.07,668.31,340.71,668.12,341.37Z"/><path class="cls-1" d="M606.78,274.66l0,1.59A8.47,8.47,0,0,0,606.78,274.66Z"/><path class="cls-3" d="M666,341.47a.43.43,0,0,1,0-.05s0,0,0-.05h0Z"/><path class="cls-1" d="M542.24,15.93C654.75,15.93,746,107.13,746,219.64A202.82,202.82,0,0,1,705.14,342h7a208.39,208.39,0,0,0,39.45-122.33c0-115.63-93.73-209.36-209.35-209.36-113.29,0-205.55,90-209.22,202.39h5.64C342.34,103.39,432.07,15.93,542.24,15.93Z"/><path class="cls-3" d="M542.24,15.93c-110.17,0-199.9,87.46-203.58,196.74h23.95c3.67-96.06,82.68-172.81,179.63-172.81A179.76,179.76,0,0,1,674,342h31.18A202.82,202.82,0,0,0,746,219.64C746,107.13,654.75,15.93,542.24,15.93Z"/><path class="cls-1" d="M542.69,45.36A174.07,174.07,0,0,1,666.32,342h12A182.77,182.77,0,0,0,542.69,36.66c-98.68,0-179.08,78.2-182.64,176h8.71A174.07,174.07,0,0,1,542.69,45.36Z"/><path class="cls-4" d="M682.15,255.29a12.18,12.18,0,0,1,3.66-6.74c.58-.5.54-.65-.2-1a9.51,9.51,0,0,1-2.12-1,33.46,33.46,0,0,1-3.48-2.88q0,7.46,0,14.9A5.51,5.51,0,0,0,682.15,255.29Z"/><path class="cls-1" d="M714.84,242.32v0a29.9,29.9,0,0,0-1.07-5.39,32.84,32.84,0,0,0-1.31-3.63c-2.07-4.09-4.93-9.42-9.56-11.07a20,20,0,0,1-5.65-3.2,1.38,1.38,0,0,1-.68-1c0-.28-.07-.56-.11-.84l-.06,0a1.38,1.38,0,0,1-.69-.94,17.32,17.32,0,0,0-.32-2c-.26-1.25-1.62-3.39-2-4.45-2.47-6.19-5.54-7.21-11.76-8.48a2.16,2.16,0,0,0-.67,0c-.15-.29-.52-.3-.8-.43a8.41,8.41,0,0,1,0-1.12c0-.67-.66-.53-1-.79a2.53,2.53,0,0,0-.91-.53c-2.18-.94-4.46-1.7-6.57-2.82a7.31,7.31,0,0,0-3.67-1.23,1.94,1.94,0,0,1-1.91-1.43,2,2,0,0,1,0-.24,1.49,1.49,0,0,0,.83-1.16h0c.36.07-.52.85-.46.56.09-.46.16-.91.24-1.37h0v-.91a8.15,8.15,0,0,0,.38-2.14,6.51,6.51,0,0,1,.22-2.28c.7-.1,1.41-.18,2.11-.29,2-.34,2.31-3.55,2.79-5.54a7.29,7.29,0,0,1,.8-2,18.61,18.61,0,0,0,2.12-5.09c.74-3.23,1.69-7.46.74-10.68a20.68,20.68,0,0,0-1.53-3.8,16.12,16.12,0,0,0-3.9-5.86,33.39,33.39,0,0,1-4.56-4.95,10.21,10.21,0,0,0-.78-.83,1.06,1.06,0,0,0-.55-.35c-.18-.19-.37-.37-.55-.57a1.27,1.27,0,0,0-1-.42c-2,0-4.9,0-6.85,0-.54,0-1.07,0-1.59,0h-.67a6.9,6.9,0,0,0-4.14.86c-1.25.8-2.83,1-3.94,2.13a2.19,2.19,0,0,1-.34.29,13.22,13.22,0,0,0-5.35-.58,12.78,12.78,0,0,0-4.84.56c-1.58.5-2.5.86-3.3,2.15a7.9,7.9,0,0,0-.66,5.33,6.85,6.85,0,0,0,.33,1.09c.41,1,.85,1.94,1.27,2.91-.15.3-.23.59,0,.77-.44.45.34.42.29.72s.1.33.23.22h0l.23.08a2.94,2.94,0,0,0-.91,1.7,2.39,2.39,0,0,1-.4,1.11c-.86,1.3-2.14,2.74-2,4.25l0,.27a1.44,1.44,0,0,0-.24,1,1.51,1.51,0,0,1-.69.5,1.54,1.54,0,0,0-1.05,1.87,1.08,1.08,0,0,1-.24.92,3.9,3.9,0,0,0-.75,2.35,17.66,17.66,0,0,1-.19,2.41,4.89,4.89,0,0,0-.13,1.66,3.25,3.25,0,0,1-.94,3c-1.33,1.51-.95,3.07.88,3.88,1.46.65,1.84.46,3.12,1.4a4.89,4.89,0,0,1,1.79,2.41c-.32.21-1.49,2.78-2.62,3.8a5.39,5.39,0,0,1-.71-.77,23,23,0,0,0-3.06-3.61,31.36,31.36,0,0,0-8.89-5.72,24.42,24.42,0,0,0-7.21-1.37,1.79,1.79,0,0,1-1.82-1.2c-.27-.62-.6-1.22-.87-1.84-1.78-4.11-4.06-4.45-8-4.22l-1.4.1.41-.45a7.08,7.08,0,0,0,2.08-3.71c.28-.83.54-1.68.79-2.52a7.29,7.29,0,0,1,1.55-3.23,21.43,21.43,0,0,1,1.83-2,2,2,0,0,0,1.67.82c.74,0,1.17.18,1.31,1,.09.49.31,1,1,1a1.64,1.64,0,0,1,1.45.64c.8.89,5.17,1.55,6.4,1.37a28.21,28.21,0,0,0,4.39-.85c1.59-.45,3.07-2.13,4.44-3.05a1.5,1.5,0,0,0,.65-1.39,32.25,32.25,0,0,0-.85-5.6,5,5,0,0,0-.88-1.92c-.38-1.54-1.29-4.63-2.72-5.33a50,50,0,0,0-11.15-4.07,37.7,37.7,0,0,0-4.63-1.14,6.14,6.14,0,0,0-2.49,0,4.53,4.53,0,0,0-4.06,1,14.47,14.47,0,0,1-3.72,2.35c-7.2,3.34-13.78,8.66-19.92,13.66-3.32,2.7-6,6-9.41,8.68-1.87,1.47-4.35,4.14-3.51,6.46a91.11,91.11,0,0,0,4.5,10.33c1.17,2.38,2.43,4.71,3.77,7,2.19,3.76,5.09,8.75,8.11,11.92,1.35,1.42,3.14,4.21,5.07,4.8,1.18.36,3.17.8,4.36,1.13,2.31.63,8.43,2.44,8.91,4.52.39,1.69.68,3.41,1.09,5.1a73.44,73.44,0,0,0,10.82,24.08,2.29,2.29,0,0,1,.4,1.34c0,8.33-.22,16.35-.21,24.68,0,1.06,0,2.13.06,3.19s.28,2.2-.56,3.16a2.12,2.12,0,0,0-.35,1.38,14.12,14.12,0,0,0,.12,2.34c.09.59.29.93.85.89a15.11,15.11,0,0,0,.12,1.51c.1.67.32,1.05,1,.93,0,.75-1,1.51-1.11,2.27a4.32,4.32,0,0,0,0,2,4.63,4.63,0,0,1-.24,1.93,5.38,5.38,0,0,0-.58,2.32c-1.59.15-2,.48-2.12,1.91,0,.63-.2,1-.91.83a1.25,1.25,0,0,0-.93.26,9,9,0,0,0-2.62,4.16.74.74,0,0,0,.05.76c.14.22,2-.12,2.58.59a9.52,9.52,0,0,1,1,3.25c.1.63.24,2.25.69,2.68,0,.88,0,1.75,0,2.62s.2,1.16.93,1.11c0,.83,0,1.66,0,2.49s.2,1.2,1,1.15c0,4.59.94,9.17,1.06,13.75a9.26,9.26,0,0,0,0,1.29c.24,2,.52,4,.78,6a12.77,12.77,0,0,0,.42,3.2c0,.43.09.85.14,1.28h5.28c-.07-.72-.16-1.43-.23-2.15a12.33,12.33,0,0,1-.42-3.2c-.26-2-.54-4-.78-6v0a9.29,9.29,0,0,1,0-1.18v-.32c-.11-4.12-.09-8.25-.07-12.37,0-1.3,0-2.59,0-3.89,0-.64-.12-1-.84-.92s-1.09-.26-1.07-1.1c0-1.64,0-3.29,0-4.94,0-.26.06-.55-.3-.69-.88-.35-1.07-1.15-1.2-2a8.85,8.85,0,0,1,0-2.57.6.6,0,0,0,0-.19c0-.29-.18-.37-.53-.35l-.22,0a5.46,5.46,0,0,0-1,.22l-.61.18-.61.14c-.26,0-.64.2-.78,0s.06-.59.25-.82a20.75,20.75,0,0,1,3.32-3.1,1.25,1.25,0,0,1,.93-.26c.7.13.86-.2.91-.83.08-.89.26-1.36.78-1.62l.12,0,.07,0a4.63,4.63,0,0,1,1.15-.23,5.37,5.37,0,0,1,.58-2.31,4.65,4.65,0,0,0,.24-1.93,4.32,4.32,0,0,1,0-2c0-.16,0-.32.06-.47a12.86,12.86,0,0,0-.16-3.61c-.08-.48-.24-.74-.76-.64-.72.14-.93-.22-1-.88v0a13.94,13.94,0,0,1-.12-2.32,2.12,2.12,0,0,1,.35-1.38,2.52,2.52,0,0,0,.6-1.39,8.47,8.47,0,0,0,0-1.59c0-.06,0-.12,0-.18,0-1.07-.06-2.13-.06-3.19q0-11.91,0-23.81v-1.19a2.29,2.29,0,0,0-.4-1.34A76.43,76.43,0,0,1,603,220.14c-.41-1.69-.7-3.41-1.09-5.1a6.36,6.36,0,0,0-3.72-4.33,38,38,0,0,0-6.82-2.22c-1.19-.32-2.4-.6-3.58-1a11.22,11.22,0,0,1-4.73-3.31,55.22,55.22,0,0,1-7.6-10.55,94.12,94.12,0,0,1-7.37-15.47,4.13,4.13,0,0,1,1.45-5.25c3.23-2.53,5.85-5.74,9-8.33a90.69,90.69,0,0,1,19.14-12.16,13.94,13.94,0,0,0,3.57-2.26l.18-.14a3.84,3.84,0,0,1,2.58-.9,7.78,7.78,0,0,1,1.35.12c.68.12,1.34.27,2,.42a51.88,51.88,0,0,1,10.39,3.9c.11.05.2.11.31.17a4.74,4.74,0,0,1,2.43,3.25,34.18,34.18,0,0,1,.82,5.14c0,.15,0,.31,0,.46a1.47,1.47,0,0,1-.64,1.38c-.35.23-.7.44-1.06.65a15.31,15.31,0,0,1-2.84,1.25l.11.09c-.14,0-.19-.06-.11-.09-.86,0-3.55,0-4.18-.73a2.43,2.43,0,0,0-.5-.42,1.5,1.5,0,0,0-.58-.21,2.22,2.22,0,0,0-.37,0c-.66.06-.88-.48-1-1l0-.12c-.16-.69-.58-.88-1.28-.86a1.83,1.83,0,0,1-.92-.19,2.94,2.94,0,0,1-1.13-1.16l-.16-.28-.21-.37c-.21-.38-.42-.75-.66-1.11a2,2,0,0,0-.47-.52,1,1,0,0,0-1.29.05l-.1.06q-.76.51-1.5,1.05a22.15,22.15,0,0,0-4.21,4c-1,1.25-1.13,2.78-1.56,4.22-.25.85-.51,1.69-.78,2.53a12.35,12.35,0,0,1-3.09,4.71c-.36.37-.69.76-1,1.16l-.1.14c-.09.13-.2.25-.29.39-.3.47-.19.72.38.69,1,0,1.91-.14,2.87-.2l.74,0a13.38,13.38,0,0,1,2.76.26c.33.07.66.15,1,.25a8.34,8.34,0,0,1,5.5,4.73c.27.62.6,1.22.87,1.84a2.32,2.32,0,0,0,.31.54,1.73,1.73,0,0,0,1.51.66c.89,0,1.79,0,2.68.05a32.15,32.15,0,0,1,3.53.32c.3,0,.58.11.87.17l.26,0a16.71,16.71,0,0,1,7.75,4.5,37.92,37.92,0,0,1,4.07,4.61,4.11,4.11,0,0,0,1.12,1.07,2,2,0,0,0,.3.14,2.23,2.23,0,0,0,1.87-.14,3,3,0,0,0,.31-.15l.48-.27a6.37,6.37,0,0,1,1-.63c2.86-.95,5.12-5.28,5.38-5.23a.2.2,0,0,0,.15,0,.94.94,0,0,1-.06-.15,5,5,0,0,0-1.73-2.26,22,22,0,0,0-4.12-2.4c-1.83-.81-2.21-2.37-.88-3.88a3.25,3.25,0,0,0,.94-3,4.89,4.89,0,0,1,.13-1.66,17.68,17.68,0,0,0,.19-2.42,3.94,3.94,0,0,1,.75-2.35,1.05,1.05,0,0,0,.24-.91,1.49,1.49,0,0,1,.8-1.75l.25-.12a1.34,1.34,0,0,0,.93-1.4,2.93,2.93,0,0,0,0-.41,6.29,6.29,0,0,1,1-4.25,2.28,2.28,0,0,0,.39-1.12,3,3,0,0,1,.92-1.69l-.23-.08h0c-.13.11-.32-.05-.23-.22s-.73-.27-.29-.72v-.77c-.42-1-.86-1.94-1.27-2.91a6.85,6.85,0,0,1-.33-1.09,2.65,2.65,0,0,1,.82-2.87,3.47,3.47,0,0,1,.37-.26,3.82,3.82,0,0,1,.84-.38,12.87,12.87,0,0,1,7.26-.06l.38.12.33.1a1.94,1.94,0,0,0,1.69-.06,2.75,2.75,0,0,0,.45-.35,4.4,4.4,0,0,1,1.22-.85c.82-.41,1.71-.68,2.48-1.16l.08,0a5.28,5.28,0,0,1,1.9-.72,11,11,0,0,1,2.08-.1c1.87,0,3.74,0,5.62,0a1.23,1.23,0,0,1,1,.4.74.74,0,0,0,.12.13,5.48,5.48,0,0,1,.65.71,33.39,33.39,0,0,0,4.56,5,17.07,17.07,0,0,1,4.59,7.83,18.66,18.66,0,0,1,.65,7.33,21.78,21.78,0,0,1-.4,2.35,18.74,18.74,0,0,1-2.12,5.09,7.29,7.29,0,0,0-.8,2,4.69,4.69,0,0,1-1.21,2.28,4.93,4.93,0,0,1-.49.42,4.38,4.38,0,0,1-1.26.63l-.14,0-.16,0c-.17,0-.34.09-.53.12l-.18,0-.15,0-.17,0-.81.11-.8.12c0,.1-.05.2-.08.3a8.72,8.72,0,0,0-.14,2,8.08,8.08,0,0,1-.38,2.14v.91h0c-.08.46-.15.92-.24,1.37,0,.29-.18.52-.54.44h0a1.53,1.53,0,0,1-.83,1.16,1.85,1.85,0,0,0,0,.23,20,20,0,0,0,1.08,3.19c.09.2.27.36.26.61a2.12,2.12,0,0,0,.29.66,1.59,1.59,0,0,0,.51.49,2.24,2.24,0,0,0,.74.26,5,5,0,0,0,.89.06h.28a7.5,7.5,0,0,1,3.31,1.18l.08,0,.32.15c2,1,4.17,1.77,6.25,2.67a2.59,2.59,0,0,1,.84.48l.06,0a.54.54,0,0,0,.2.1c.27.11.6.14.73.41a.55.55,0,0,1,.07.28c0,.48-.14,1.08.09,1.4a.56.56,0,0,0,.52.16,3.39,3.39,0,0,1,.84,0l.19,0c7.2,1.52,12.83,5.38,14.62,13.89a19.73,19.73,0,0,1,.32,2c0,.47.38.69.69.94a19,19,0,0,0,1.74,1.24c1.23.8,4.9,3.36,7.78,4a25.35,25.35,0,0,1,6.94,9.81c2.06,4.62,2.06,10.43,1.71,15.62-.17.3-.27.44-.26.33a59.63,59.63,0,0,0-6.76,5.81c-3.52,3.44-6,7.75-10.46,10.16a25.7,25.7,0,0,1-3.49,1.47c-2,.66-3.93,1.23-5.92,1.73-1.61.41-3.24.77-4.87,1.09l-.78.16a4.71,4.71,0,0,0-1.39.5,4.57,4.57,0,0,0-.47.29,1.91,1.91,0,0,0-1,2.07.89.89,0,0,1,0,.59.85.85,0,0,1-.36.42,1.67,1.67,0,0,1-.38.15,6.52,6.52,0,0,1-1.37.4c-.51,0-.56.33-.4.74l0,.17c.1.35.19.71.28,1.06.22,0,.28-.17.4-.29a2.31,2.31,0,0,1,1.59-.72h.15a2.31,2.31,0,0,1,.37,0l.06,0,.13.05h0a1.17,1.17,0,0,1,.2.06,2.4,2.4,0,0,1,.38.23l.26.23.06.07.16.16a2.36,2.36,0,0,1,.33.56s0,0,0,0,0,.09,0,.14a5.36,5.36,0,0,1,.31,1.47c0,.36,0,.72.06,1.08.26.13.39-.09.55-.17a1.27,1.27,0,0,1,2,.95,4.55,4.55,0,0,1,.1,1.1,8.27,8.27,0,0,1-.12,1.21c-.1.53-.22,1.06-.34,1.58-.3,1.38-.72,2.74-.91,4.14a1.47,1.47,0,0,1-1.19,1.41c-.31.05-.35.21-.36.46-.11,1.84-.21,3.69-.32,5.53,0,.39.22.4.48.41h.17a21.54,21.54,0,0,0,2.27-.09l.29,0a2.7,2.7,0,0,1,.76.06,2.17,2.17,0,0,1,1.14.57,2.13,2.13,0,0,1,.61,1.79,1.93,1.93,0,0,1-1.16,1.6l0,0a3.06,3.06,0,0,1-.87.26c-.45.07-.59.22-.62.64a9.41,9.41,0,0,1-.51,2.52c-.12.33-.2.76-.45.94-1.21.91-1,2.28-1.2,3.5-.26,1.47-.45,2.95-.6,4.43-.06.49-.24.55-.67.53-1.35-.06-1.35-.05-1.35,1.33,0,1.87,0,3.75,0,5.62,0,.39,0,.67-.49.79s-.59.52-.6.95q-.08,2.55-.39,5.07c-.08.65.16,1.3.06,2a6.2,6.2,0,0,1-.86,2.32,2.34,2.34,0,0,1-.29,1.24,10.37,10.37,0,0,1-.43,1.66,5.27,5.27,0,0,0-.32,2.11,10.44,10.44,0,0,1,.51,2.58c0,.13,0,.27,0,.4l0,.39h4.93a10.76,10.76,0,0,0-.52-2.86c0-.33,0-.65,0-1a6.09,6.09,0,0,0,.47-1.59,1.27,1.27,0,0,0,0-.2c.08-.33.15-.68.23-1a2.41,2.41,0,0,0,.29-1.24,6.38,6.38,0,0,0,.86-2.32c.1-.66-.14-1.32-.06-2q.32-2.54.39-5.07c0-.44.15-.84.6-1s.49-.4.49-.78c0-1-1-1.89-1-2.83h.08c.44,0,.64,0,.69-.55.13-1.2,1.28-2.4,1.47-3.59h.11c.43,0,.61,0,.66-.53.15-1.36.32-2.72.55-4.07l.09-.08c.26-.19.34-.64.46-1a9.78,9.78,0,0,0,.54-2.62v0c.06,0,.1-.1.17-.15a1,1,0,0,0,.28-.45l.19,0a2.24,2.24,0,0,0,1.6-3.73,2,2,0,0,0,1.57-1.77c.08-.85,1-7.05-2.36-6.25a9.67,9.67,0,0,1-2.28.12c0-.59.06-1.19.1-1.79a1.8,1.8,0,0,0,.51-1.08c.08-.62.22-1.23.36-1.84a1.57,1.57,0,0,0,.82-1.27c.19-1.41.61-.76.91-2.14a9,9,0,0,0,.36-3.9,1.41,1.41,0,0,0-.76-1.07,4.07,4.07,0,0,0-.1-.76,1.25,1.25,0,0,0-1.9-1,4.65,4.65,0,0,0-.23-.69,2.45,2.45,0,0,0-.56-.79,4.73,4.73,0,0,0-.29-1c-.28-.63.26,0-.26-.27a.8.8,0,0,0,.22-.69,4.83,4.83,0,0,1,1.67-.66c4.08-.78,6.11-1.77,10.05-3.1,5.08-1.71,9.23-4.86,13-8.55,2.66-2.6,5-5.47,8-7.69a1.94,1.94,0,0,0,.82-1.26c.2-1-.74-2.92-.67-3.89C716.12,249,715.17,244.62,714.84,242.32Z"/><polygon class="cls-1" points="632.43 160.72 632.43 160.73 632.44 160.73 632.44 160.72 632.43 160.72"/><path class="cls-1" d="M647.38,339.66s0,0,0-.05l-.06-.26q-.27-1.29-.45-2.61l0-.05-.06-.17-.06-.17c-.35-1-.71-2.06-1.07-3.08-.07-.21-.1-.49-.38-.5s-.25.27-.33.44a20.48,20.48,0,0,0-.66,2.32,5.61,5.61,0,0,1-.47,2.18.85.85,0,0,0,0,.17.19.19,0,0,0,0,.08.06.06,0,0,0,0,0c-.29,1-.27,2.12-.51,3.16,0,0,0,.1,0,.16h4.56c-.13-.47-.22-.93-.33-1.4Z"/><path class="cls-1" d="M676.36,239.51a3.22,3.22,0,0,0-.32,1.59q0,9.66,0,19.32v1.51c.12-.12.25-.22.38-.34a13.58,13.58,0,0,1,2.26-1.75c.15-.09.31-.17.47-.25s.56-.31.85-.44a12.68,12.68,0,0,1,1.34-.5,5,5,0,0,0,.58-.21,5.32,5.32,0,0,0,1.16-.61,5.5,5.5,0,0,0,2.26-3.42,12.78,12.78,0,0,1,3.2-6.3c.15-.15.3-.3.46-.44a1.18,1.18,0,0,0,.38-.44c.06-.19-.12-.32-.58-.5l-.16-.07a8.54,8.54,0,0,1-2-.92,31.26,31.26,0,0,1-6.24-5.91l-.52-.68c-.19-.25-.37-.5-.55-.76-.31-.45-.61-.9-.9-1.37l-.51-.87c-.18.87-1.07,1.47-.75,2.43,0,0,0,.15-.09.18A1.89,1.89,0,0,0,676.36,239.51Z"/><path class="cls-3" d="M709.16,234.2a20.25,20.25,0,0,0-6.35-8.4,17.51,17.51,0,0,0-2.55-1.17,20.16,20.16,0,0,1-5.23-2.85,19,19,0,0,1-1.74-1.24c-.31-.25-.64-.47-.69-.94a19.73,19.73,0,0,0-.32-2c-1.79-8.51-7.42-12.37-14.62-13.89l-.19,0a3.39,3.39,0,0,0-.84,0,.56.56,0,0,1-.52-.16c-.23-.32-.08-.92-.09-1.4a.55.55,0,0,0-.07-.28c-.13-.27-.46-.3-.73-.41a.54.54,0,0,1-.2-.1l-.06,0a2.59,2.59,0,0,0-.84-.48c-2.08-.9-4.23-1.63-6.25-2.67l-.32-.15-.08,0a7.5,7.5,0,0,0-3.31-1.18h-.28a5,5,0,0,1-.89-.06,2.24,2.24,0,0,1-.74-.26,1.59,1.59,0,0,1-.51-.49,2.12,2.12,0,0,1-.29-.66c0-.25-.17-.41-.26-.61a20,20,0,0,1-1.08-3.19,1.85,1.85,0,0,1,0-.23,1.53,1.53,0,0,0,.83-1.16h0c.36.08.49-.15.54-.44.09-.45.16-.91.24-1.37h0v-.91a8.08,8.08,0,0,0,.38-2.14,8.72,8.72,0,0,1,.14-2c0-.1.05-.2.08-.3l.8-.12.81-.11.17,0,.15,0,.18,0c.19,0,.36-.08.53-.12l.16,0,.14,0a4.38,4.38,0,0,0,1.26-.63,4.93,4.93,0,0,0,.49-.42,4.69,4.69,0,0,0,1.21-2.28,7.29,7.29,0,0,1,.8-2,18.74,18.74,0,0,0,2.12-5.09,21.78,21.78,0,0,0,.4-2.35,18.66,18.66,0,0,0-.65-7.33,17.07,17.07,0,0,0-4.59-7.83,33.39,33.39,0,0,1-4.56-5,5.48,5.48,0,0,0-.65-.71.74.74,0,0,1-.12-.13,1.23,1.23,0,0,0-1-.4c-1.88,0-3.75,0-5.62,0a11,11,0,0,0-2.08.1,5.28,5.28,0,0,0-1.9.72l-.08,0c-.77.48-1.66.75-2.48,1.16a4.4,4.4,0,0,0-1.22.85,2.75,2.75,0,0,1-.45.35,1.94,1.94,0,0,1-1.69.06l-.33-.1-.38-.12a12.87,12.87,0,0,0-7.26.06,3.82,3.82,0,0,0-.84.38,3.47,3.47,0,0,0-.37.26,2.65,2.65,0,0,0-.82,2.87,6.85,6.85,0,0,0,.33,1.09c.41,1,.85,1.94,1.27,2.91-.15.3-.23.58,0,.77-.44.45.34.42.29.72s.1.33.23.22h0l.23.08a3,3,0,0,0-.92,1.69,2.28,2.28,0,0,1-.39,1.12,6.29,6.29,0,0,0-1,4.25,2.93,2.93,0,0,1,0,.41,1.34,1.34,0,0,1-.93,1.4l-.25.12a1.49,1.49,0,0,0-.8,1.75,1.05,1.05,0,0,1-.24.91,3.94,3.94,0,0,0-.75,2.35,17.68,17.68,0,0,1-.19,2.42,4.89,4.89,0,0,0-.13,1.66,3.25,3.25,0,0,1-.94,3c-1.33,1.51-1,3.07.88,3.88a22,22,0,0,1,4.12,2.4,5,5,0,0,1,1.73,2.26.94.94,0,0,0,.06.15.2.2,0,0,1-.15,0c-.26-.05-.5-.56-.77.06a11.48,11.48,0,0,1-4.61,5.17q-.5.33-1,.63l-.48.27a3,3,0,0,1-.31.15,2.23,2.23,0,0,1-1.87.14,2,2,0,0,1-.3-.14,4.11,4.11,0,0,1-1.12-1.07,37.92,37.92,0,0,0-4.07-4.61,16.71,16.71,0,0,0-7.75-4.5l-.26,0c-.29-.06-.57-.13-.87-.17a32.15,32.15,0,0,0-3.53-.32c-.89,0-1.79-.05-2.68-.05a1.73,1.73,0,0,1-1.51-.66,2.32,2.32,0,0,1-.31-.54c-.27-.62-.6-1.22-.87-1.84a8.34,8.34,0,0,0-5.5-4.73c-.32-.1-.65-.18-1-.25a13.38,13.38,0,0,0-2.76-.26l-.74,0c-1,.06-1.91.15-2.87.2-.57,0-.68-.22-.38-.69.09-.14.2-.26.29-.39l.1-.14c.32-.4.65-.79,1-1.16a12.35,12.35,0,0,0,3.09-4.71c.27-.84.53-1.68.78-2.53.43-1.44.57-3,1.56-4.22a22.15,22.15,0,0,1,4.21-4q.74-.54,1.5-1.05l.1-.06a1,1,0,0,1,1.29-.05,2,2,0,0,1,.47.52c.24.36.45.73.66,1.11l.21.37.16.28a2.94,2.94,0,0,0,1.13,1.16,1.83,1.83,0,0,0,.92.19c.7,0,1.12.17,1.28.86l0,.12c.09.49.31,1,1,1a2.22,2.22,0,0,1,.37,0,1.5,1.5,0,0,1,.58.21,2.43,2.43,0,0,1,.5.42,3.06,3.06,0,0,0,2.23,1.14,3.3,3.3,0,0,0,.75-.08c.41-.09.81-.21,1.2-.33a15.31,15.31,0,0,0,2.84-1.25c.36-.21.71-.42,1.06-.65a1.47,1.47,0,0,0,.64-1.38c0-.15,0-.31,0-.46a34.18,34.18,0,0,0-.82-5.14,4.74,4.74,0,0,0-2.43-3.25c-.11-.06-.2-.12-.31-.17a51.88,51.88,0,0,0-10.39-3.9c-.66-.15-1.32-.3-2-.42a7.78,7.78,0,0,0-1.35-.12,3.84,3.84,0,0,0-2.58.9l-.18.14a13.94,13.94,0,0,1-3.57,2.26,90.69,90.69,0,0,0-19.14,12.16c-3.18,2.59-5.8,5.8-9,8.33a4.13,4.13,0,0,0-1.45,5.25,94.12,94.12,0,0,0,7.37,15.47,55.22,55.22,0,0,0,7.6,10.55,11.22,11.22,0,0,0,4.73,3.31c1.18.36,2.39.64,3.58,1a38,38,0,0,1,6.82,2.22,6.36,6.36,0,0,1,3.72,4.33c.39,1.69.68,3.41,1.09,5.1a76.43,76.43,0,0,0,10.61,24.76,2.29,2.29,0,0,1,.4,1.34v1.19q0,11.91,0,23.81c0,1.06,0,2.12.06,3.19,0,.06,0,.12,0,.18a8.47,8.47,0,0,1,0,1.59,2.52,2.52,0,0,1-.6,1.39,2.12,2.12,0,0,0-.35,1.38,13.94,13.94,0,0,0,.12,2.32v0c.1.66.31,1,1,.88.52-.1.68.16.76.64a12.86,12.86,0,0,1,.16,3.61c0,.15,0,.31-.06.47a4.32,4.32,0,0,0,0,2,4.65,4.65,0,0,1-.24,1.93,5.37,5.37,0,0,0-.58,2.31,4.63,4.63,0,0,0-1.15.23l-.07,0-.12,0c-.52.26-.7.73-.78,1.62-.05.63-.21,1-.91.83a1.25,1.25,0,0,0-.93.26,20.75,20.75,0,0,0-3.32,3.1c-.19.23-.43.56-.25.82s.52,0,.78,0l.61-.14.61-.18a5.46,5.46,0,0,1,1-.22l.22,0c.35,0,.52.06.53.35a.6.6,0,0,1,0,.19,8.85,8.85,0,0,0,0,2.57c.13.81.32,1.61,1.2,2,.36.14.3.43.3.69,0,1.65.09,3.3,0,4.94,0,.84.22,1.21,1.07,1.1s.84.28.84.92c0,1.3,0,2.59,0,3.89,0,4.12,0,8.25.07,12.37v.32a9.29,9.29,0,0,0,0,1.18v0c.24,2,.52,4,.78,6a12.33,12.33,0,0,0,.42,3.2c.07.72.16,1.43.23,2.15h27.72c0-.06,0-.11,0-.16.24-1,.22-2.12.51-3.16a.06.06,0,0,1,0,0,.19.19,0,0,1,0-.08.85.85,0,0,1,0-.17,5.61,5.61,0,0,0,.47-2.18,20.48,20.48,0,0,1,.66-2.32c.08-.17.08-.45.33-.44s.31.29.38.5c.36,1,.72,2.05,1.07,3.08l.06.17.06.17,0,.05q.18,1.32.45,2.61l.06.26s0,0,0,.05l.06.26c.11.47.2.93.33,1.4h25.51l0-.39c0-.13,0-.27,0-.4a10.44,10.44,0,0,0-.51-2.58,5.27,5.27,0,0,1,.32-2.11,10.37,10.37,0,0,0,.43-1.66,2.34,2.34,0,0,0,.29-1.24,6.2,6.2,0,0,0,.86-2.32c.1-.67-.14-1.32-.06-2q.32-2.52.39-5.07c0-.43.15-.84.6-.95s.49-.4.49-.79c0-1.87,0-3.75,0-5.62,0-1.38,0-1.39,1.35-1.33.43,0,.61,0,.67-.53.15-1.48.34-3,.6-4.43.21-1.22,0-2.59,1.2-3.5.25-.18.33-.61.45-.94a9.41,9.41,0,0,0,.51-2.52c0-.42.17-.57.62-.64a3.06,3.06,0,0,0,.87-.26l0,0a1.93,1.93,0,0,0,1.16-1.6,2.13,2.13,0,0,0-.61-1.79,2.17,2.17,0,0,0-1.14-.57A2.7,2.7,0,0,0,681,298l-.29,0a21.54,21.54,0,0,1-2.27.09h-.17c-.26,0-.51,0-.48-.41.11-1.84.21-3.69.32-5.53,0-.25,0-.41.36-.46a1.47,1.47,0,0,0,1.19-1.41c.19-1.4.61-2.76.91-4.14.12-.52.24-1.05.34-1.58a8.27,8.27,0,0,0,.12-1.21,4.55,4.55,0,0,0-.1-1.1,1.27,1.27,0,0,0-2-.95c-.16.08-.29.3-.55.17,0-.36,0-.72-.06-1.08A5.36,5.36,0,0,0,678,279c0-.05,0-.1,0-.14s0,0,0,0a2.36,2.36,0,0,0-.33-.56l-.16-.16-.06-.07-.26-.23a2.4,2.4,0,0,0-.38-.23,1.17,1.17,0,0,0-.2-.06h0l-.13-.05-.06,0a2.31,2.31,0,0,0-.37,0h-.15a2.31,2.31,0,0,0-1.59.72c-.12.12-.18.32-.4.29-.09-.35-.18-.71-.28-1.06l0-.17c-.16-.41-.11-.71.4-.74a6.52,6.52,0,0,0,1.37-.4,1.67,1.67,0,0,0,.38-.15.85.85,0,0,0,.36-.42.89.89,0,0,0,0-.59,1.91,1.91,0,0,1,1-2.07,4.57,4.57,0,0,1,.47-.29,4.71,4.71,0,0,1,1.39-.5l.78-.16c1.63-.32,3.26-.68,4.87-1.09,2-.5,4-1.07,5.92-1.73a25.7,25.7,0,0,0,3.49-1.47,37.05,37.05,0,0,0,9-6.74c2.54-2.49,4.84-5.25,7.72-7.38a1.82,1.82,0,0,0,.79-1.21,20.06,20.06,0,0,0,.32-2.78A30.85,30.85,0,0,0,709.16,234.2ZM676,261v-.58q0-9.66,0-19.32a3.22,3.22,0,0,1,.32-1.59,1.89,1.89,0,0,1,.76-.75s.11-.13.09-.18c-.32-1,.57-1.56.75-2.43l.51.87c.29.47.59.92.9,1.37.18.26.36.51.55.76l.52.68a31.26,31.26,0,0,0,6.24,5.91,8.54,8.54,0,0,0,2,.92l.16.07c.46.18.64.31.58.5a1.18,1.18,0,0,1-.38.44c-.16.14-.31.29-.46.44a12.78,12.78,0,0,0-3.2,6.3,5.5,5.5,0,0,1-2.26,3.42,5.32,5.32,0,0,1-1.16.61,5,5,0,0,1-.58.21,12.68,12.68,0,0,0-1.34.5c-.29.13-.57.29-.85.44s-.32.16-.47.25a13.58,13.58,0,0,0-2.26,1.75c-.13.12-.26.22-.38.34Z"/><polygon class="cls-3" points="635.63 159.85 635.62 159.85 635.63 159.85 635.63 159.85"/><polygon class="cls-3" points="635.63 159.85 635.62 159.85 635.62 159.86 635.63 159.85"/><path class="cls-3" d="M673.3,341.37s0,0,0-.05h0v.1S673.29,341.38,673.3,341.37Z"/><circle class="cls-1" cx="493.16" cy="124.81" r="21.35"/><path class="cls-2" d="M578.37,150.09l-27.2-23.15V102.59H521.9v15.94L493.1,89.72l-37.33,37.33h-38.6L390.41,150.2h34.51v45.73H551.17V150.09Zm-80.39-40a16.2,16.2,0,0,1,11.4,11.24c0,.07,0,.14.05.21s0-.14-.05-.21H498V110.13a15.93,15.93,0,0,0-8.3,0v11.24h-11.4a16.2,16.2,0,0,1,11.4-11.24m-11.51,19.54h11.51v11.67A16.14,16.14,0,0,1,478.17,129.67ZM498,141.34V129.67h11.51A16.14,16.14,0,0,1,498,141.34Z"/><path class="cls-1" d="M583,149.75l-28-24.37V98.49H517.68v10.65L495.61,87.06l-2.83-2.82L490,87.06l-36.06,36.07H415.37v.06l-31,26.91-4.6,4h41v45.66H554.91v-46h32.64Zm-32,0v46H424.83V150.1H390.51l26.44-23h38.6l4-4,33.23-33.24,24.9,24.9,4,4,0-16.28h29.23V127.2l4,3.48,21.94,19.07Z"/><path class="cls-1" d="M340.07,419.27h-3.38l-9.42-13.46a23.31,23.31,0,0,0,7.78-7.23,24.14,24.14,0,0,0,3.81-13.66,23.53,23.53,0,0,0-14.48-22.65,39.43,39.43,0,0,0-16.4-3.15H274.35v5h.11v3.52h2.38v51.65h-2.38v8.5h25v-8.5h-1.28V411h8.42l8.47,12.1v4.67h25ZM307.3,375.88q5.4,0,8.22,2.34a9.34,9.34,0,0,1,0,13.36Q312.7,394,307.3,394h-9.77V375.88Z"/><path class="cls-2" d="M337.06,421.17h-3.15L322.6,405a21,21,0,0,0,13.26-20.36,21.32,21.32,0,0,0-13.12-20.54,35.91,35.91,0,0,0-14.88-2.86H277.35v4.52H280v55.45h-2.6v4.51h19.86v-4.51h-2.34V407.72H308.6l9.31,13.45h-.7v4.51h19.85Zm-30-25.33H294.87V373.36H307q6.72,0,10.23,2.9t3.5,8.34a10.25,10.25,0,0,1-3.5,8.29Q313.75,395.85,307,395.84Z"/><path class="cls-1" d="M419.61,419.24h-3.47l-24.36-54.48v-5.95h-25v6.42l-24.08,54H339v8.5h25v-6.89l2.47-6.13H392l2.63,6.5v6.49h25Zm-46.39-21.6L379.28,383l6.06,14.63Z"/><path class="cls-2" d="M416.77,421h-3.22l-24.8-55.46h.45v-4.51H369.35v4.51H370L345.27,421h-3.48v4.51h19.85V421h-1.23l3.85-9.31H394.2L398,421h-1.12v4.51h19.85Zm-47.72-20.64,10.22-24.69,10.23,24.69Z"/><path class="cls-1" d="M875.93,420.07,857.65,403l-5.79,6.22,1.56,1.46a17.16,17.16,0,0,1-8.91,2.37,18.23,18.23,0,0,1-9.07-2.23,15.85,15.85,0,0,1-6.21-6.21,19.54,19.54,0,0,1,0-18.13,15.85,15.85,0,0,1,6.21-6.21,18.23,18.23,0,0,1,9.07-2.23,17.3,17.3,0,0,1,8.8,2.27L851.57,382l5.79,6.22,18.29-17.05-5.8-6.22-2,1.81a33.93,33.93,0,0,0-7.73-4.67,44.09,44.09,0,0,0-36.46,1.47,35.32,35.32,0,0,0-13.81,13.1,38.17,38.17,0,0,0,0,37.88,35.28,35.28,0,0,0,13.81,13.11,40.94,40.94,0,0,0,19.65,4.72,41.93,41.93,0,0,0,16.76-3.25,33.25,33.25,0,0,0,7.87-4.79l2.15,2,1.14-1.23,0,0,3.39-3.64v0Z"/><path class="cls-3" d="M855.35,410l1.74,1.63A20.09,20.09,0,0,1,844,416.2a21.51,21.51,0,0,1-10.68-2.63,18.69,18.69,0,0,1-7.33-7.32,23.1,23.1,0,0,1,0-21.37,18.78,18.78,0,0,1,7.33-7.33A21.51,21.51,0,0,1,844,374.93a20.21,20.21,0,0,1,13,4.47l-1.72,1.6,3.08,3.3L871.62,372l-3.08-3.3-1.84,1.72a30.51,30.51,0,0,0-8.24-5.24,40,40,0,0,0-33.07,1.33,32.06,32.06,0,0,0-12.53,11.88,34.64,34.64,0,0,0,0,34.36,32,32,0,0,0,12.53,11.89,37.08,37.08,0,0,0,17.82,4.28,37.81,37.81,0,0,0,15.2-3,30.17,30.17,0,0,0,8.32-5.32l1.82,1.69,3.08-3.3-13.2-12.31Z"/><path class="cls-1" d="M553.69,423a35.39,35.39,0,0,1-13.91-13.15,37.8,37.8,0,0,1,0-37.68A35.53,35.53,0,0,1,553.69,359a44,44,0,0,1,39.86,0,36.25,36.25,0,0,1,0,64,43.94,43.94,0,0,1-39.86,0Zm28.76-16.63a16.09,16.09,0,0,0,6.17-6.24,19.74,19.74,0,0,0,0-18.23,16.18,16.18,0,0,0-6.17-6.25,18.48,18.48,0,0,0-17.6,0,16.18,16.18,0,0,0-6.17,6.25,19.67,19.67,0,0,0,0,18.23,16.09,16.09,0,0,0,6.17,6.24,18.41,18.41,0,0,0,17.6,0Z"/><path class="cls-2" d="M555.55,420a32.09,32.09,0,0,1-12.62-11.93,34.29,34.29,0,0,1,0-34.17A32,32,0,0,1,555.55,362a39.89,39.89,0,0,1,36.15,0,32.89,32.89,0,0,1,0,58,39.89,39.89,0,0,1-36.15,0ZM584,409a18.84,18.84,0,0,0,7.23-7.32,23.1,23.1,0,0,0,0-21.37A18.87,18.87,0,0,0,584,373a21.63,21.63,0,0,0-20.64,0,18.87,18.87,0,0,0-7.23,7.33,23.1,23.1,0,0,0,0,21.37,18.84,18.84,0,0,0,7.23,7.32A21.56,21.56,0,0,0,584,409Z"/><path class="cls-1" d="M481,415.51l-18.29-17.05-5.79,6.22,1.57,1.46a17.17,17.17,0,0,1-8.92,2.37,18.22,18.22,0,0,1-9.06-2.23,15.72,15.72,0,0,1-6.21-6.21,19.54,19.54,0,0,1,0-18.13,15.72,15.72,0,0,1,6.21-6.21,18.22,18.22,0,0,1,9.06-2.23,17.36,17.36,0,0,1,8.81,2.27l-1.75,1.63,5.8,6.22,18.28-17.05-5.79-6.22-1.95,1.81a34.15,34.15,0,0,0-7.73-4.67A44.09,44.09,0,0,0,428.74,359a35.26,35.26,0,0,0-13.81,13.1,38.17,38.17,0,0,0,0,37.88A35.12,35.12,0,0,0,428.74,423a40.78,40.78,0,0,0,19.65,4.73,41.93,41.93,0,0,0,16.76-3.25,33.66,33.66,0,0,0,7.87-4.79l2.14,2,1.15-1.23,0,0,3.39-3.64,0,0Z"/><path class="cls-2" d="M460.38,405.46l1.74,1.63a20.09,20.09,0,0,1-13.05,4.55A21.55,21.55,0,0,1,438.38,409a18.67,18.67,0,0,1-7.32-7.32,23,23,0,0,1,0-21.37,18.69,18.69,0,0,1,7.32-7.33,21.54,21.54,0,0,1,10.69-2.62,20.2,20.2,0,0,1,13,4.47l-1.71,1.6,3.08,3.3,13.2-12.31-3.08-3.3-1.85,1.72a30.51,30.51,0,0,0-8.24-5.24,40,40,0,0,0-33.07,1.33,32,32,0,0,0-12.52,11.88,34.64,34.64,0,0,0,0,34.36,32,32,0,0,0,12.52,11.89,37.15,37.15,0,0,0,17.83,4.28,37.85,37.85,0,0,0,15.2-3,30.32,30.32,0,0,0,8.32-5.32l1.82,1.69,3.08-3.3-13.2-12.31Z"/><path class="cls-1" d="M266.67,354.48V358H223.53v-3.48H215v25h8.5v-2.83h10.81v42.62H232.6v8.5h25v-8.5h-1.78V376.65h10.85v2.83h8.5v-25ZM255.82,373.4h-3.26v45.87h-15V376.65h0V373.4H223.53V361.22h43.14V373.4Z"/><polygon class="cls-2" points="268.68 358 268.68 361.18 221.51 361.18 221.51 358 217 358 217 361.18 217 373.34 217 376.05 221.51 376.05 221.51 373.34 237.63 373.34 237.63 421.15 236.07 421.15 236.07 425.66 237.63 425.66 237.63 425.66 252.56 425.66 252.56 425.66 254.12 425.66 254.12 421.15 252.56 421.15 252.56 373.34 268.68 373.34 268.68 376.05 273.19 376.05 273.19 373.34 273.19 361.18 273.19 358 268.68 358"/><path class="cls-1" d="M529.11,354.48V358H486v-3.48h-8.5v25H486v-2.83h10.81v42.62H495v8.5h25v-8.5h-1.78V376.65h10.85v2.83h8.5v-25ZM518.26,373.4H515v45.87H500V376.65h.05V373.4H486V361.22h43.14V373.4Z"/><polygon class="cls-2" points="531.12 358 531.12 361.18 483.96 361.18 483.96 358 479.44 358 479.44 361.18 479.44 373.34 479.44 376.05 483.96 376.05 483.96 373.34 500.08 373.34 500.08 421.15 498.51 421.15 498.51 425.66 500.08 425.66 500.08 425.66 515 425.66 515 425.66 516.56 425.66 516.56 421.15 515 421.15 515 373.34 531.12 373.34 531.12 376.05 535.63 376.05 535.63 373.34 535.63 361.18 535.63 358 531.12 358"/><path class="cls-1" d="M675.62,419.27h-3.38l-9.42-13.46a23.22,23.22,0,0,0,7.78-7.23,24.14,24.14,0,0,0,3.81-13.66,23.54,23.54,0,0,0-14.47-22.65,39.49,39.49,0,0,0-16.4-3.15H609.9v5H610v3.52h2.38v51.65H610v8.5h25v-8.5h-1.27V411h8.41l8.47,12.1v4.67h25Zm-32.77-43.39q5.42,0,8.22,2.34a9.32,9.32,0,0,1,0,13.36q-2.8,2.37-8.22,2.37h-9.77V375.88Z"/><path class="cls-2" d="M672.61,421.17h-3.14L658.15,405a21,21,0,0,0,13.27-20.36A22.33,22.33,0,0,0,668,372.17a22,22,0,0,0-9.72-8.11,35.91,35.91,0,0,0-14.88-2.86h-30.5v4.52h2.59v55.45h-2.59v4.51h19.85v-4.51h-2.33V407.72h13.72l9.31,13.45h-.7v4.51h19.85Zm-30-25.33H630.43V373.36h12.15c4.49,0,7.89,1,10.23,2.9s3.5,4.72,3.5,8.34a10.25,10.25,0,0,1-3.5,8.29C650.47,394.86,647.07,395.84,642.58,395.84Z"/><path class="cls-1" d="M797.81,407.33v2.93H775.16V367.85H777v-8.5H752v8.5h1.71v52.57H752v8.5h45.86v3.41h8.5v-25Zm0,18.34H777v-5.25H757V367.85h14.9v45.66h25.91Z"/><polygon class="cls-3" points="799.74 410.65 799.74 413.51 771.92 413.51 771.92 365.7 774.28 365.7 774.28 361.19 771.92 361.19 756.99 361.19 754.43 361.19 754.43 365.7 756.99 365.7 756.99 421.16 754.43 421.16 754.43 425.67 756.99 425.67 756.99 425.67 799.74 425.67 799.74 428.7 804.25 428.7 804.25 425.67 804.25 413.51 804.25 410.65 799.74 410.65"/><path class="cls-1" d="M741.53,407.33v2.93H718.88V367.85h1.89v-8.5h-25v8.5h1.7v52.57h-1.8v8.5h45.86v3.41H750v-25Zm0,18.34H720.67v-5.25H700.73V367.85h14.89v45.66h25.91Z"/><polygon class="cls-3" points="743.46 410.65 743.46 413.51 715.64 413.51 715.64 365.7 718.01 365.7 718.01 361.19 715.64 361.19 700.72 361.19 698.15 361.19 698.15 365.7 700.72 365.7 700.72 421.16 698.15 421.16 698.15 425.67 700.72 425.67 700.72 425.67 743.46 425.67 743.46 428.7 747.97 428.7 747.97 425.67 747.97 413.51 747.97 410.65 743.46 410.65"/><path class="cls-1" d="M224.32,220.3h-38v10.1h0v4.29h2.61v60.44q0,16.22-13.84,16.22a19,19,0,0,1-11.24-3.74l2.75-3.28-10-8.36-24.42,29.11,10,8.36,2.4-2.87a44.62,44.62,0,0,0,11.34,7.18,55.36,55.36,0,0,0,22.81,4.63q21.66,0,32.85-11.27t11.19-33.81v-64h1.58Z"/><path class="cls-1" d="M497,332.61a59.15,59.15,0,0,1-23.21-21.93,63.09,63.09,0,0,1,0-62.84A59.11,59.11,0,0,1,497,225.9a69.16,69.16,0,0,1,33.28-8q18.46,0,33.2,8a60.46,60.46,0,0,1,0,106.71q-14.73,8-33.2,8A69.16,69.16,0,0,1,497,332.61Zm48.25-27.23a27.32,27.32,0,0,0,10.49-10.62,33.45,33.45,0,0,0,0-31,27.32,27.32,0,0,0-10.49-10.62,31.31,31.31,0,0,0-29.94,0,27.39,27.39,0,0,0-10.49,10.62,33.45,33.45,0,0,0,0,31,27.39,27.39,0,0,0,10.49,10.62,31.31,31.31,0,0,0,29.94,0Z"/><path class="cls-3" d="M499.52,328.64A54.63,54.63,0,0,1,478,308.34a58.39,58.39,0,0,1,0-58.17,54.7,54.7,0,0,1,21.48-20.3,67.9,67.9,0,0,1,61.53,0,56,56,0,0,1,0,98.77,67.9,67.9,0,0,1-61.53,0Zm48.36-18.74a32.05,32.05,0,0,0,12.31-12.46,39.3,39.3,0,0,0,0-36.37,32.12,32.12,0,0,0-12.31-12.46,36.73,36.73,0,0,0-35.12,0,32.1,32.1,0,0,0-12.3,12.46,39.23,39.23,0,0,0,0,36.37,32,32,0,0,0,12.3,12.46,36.73,36.73,0,0,0,35.12,0Z"/><path class="cls-3" d="M219.68,224.79H189.9v4.87h3v68.68q0,18.44-15.73,18.43-10.11,0-18.28-9.29l1-1.22-3.75-3.12-16.37,19.64,3.74,3.12,1.14-1.37a40.18,40.18,0,0,0,13,9.16,50.31,50.31,0,0,0,20.73,4.21q19.71,0,29.87-10.25t10.17-30.74V229.66h2.15v-4.87Z"/><path class="cls-1" d="M312.75,305.53v3.78H266.09V293.6h38.09v4.26h13v-38h-13v3.69H266.09V249.4h44.59V253h13V215h-13v3.73h-80V339.85h82.06v3.68h13v-38Zm-77.06,29.32V223.71h75V244.4H261.09v24.15h43.09V288.6H261.09v25.71h51.66v20.54Z"/><polygon class="cls-3" points="316.92 311.11 316.92 314.21 261.27 314.21 261.27 288.47 308.08 288.47 308.08 292.03 312.96 292.03 312.96 264.96 308.08 264.96 308.08 268.45 261.27 268.45 261.27 244.31 314.86 244.31 314.86 247.4 319.73 247.4 319.73 220.33 314.86 220.33 314.86 223.65 235.69 223.65 235.69 334.86 316.92 334.86 316.92 338.18 321.8 338.18 321.8 334.86 321.8 314.21 321.8 311.11 316.92 311.11"/><rect class="cls-1" x="460.4" y="230.88" width="5" height="101.56"/><polygon class="cls-1" points="468.84 233.45 468.84 220.45 428.84 220.45 428.84 233.45 428.93 233.45 397.99 284.94 366.75 232.96 366.75 220.54 326.75 220.54 326.75 233.54 330.24 233.54 330.24 327.94 326.79 327.94 326.79 340.94 366.79 340.94 366.79 327.94 364.32 327.94 364.32 288.86 385.91 324.78 388.92 329.78 406.17 329.78 409.17 324.78 431.47 287.67 431.47 327.94 428.65 327.94 428.65 340.94 468.65 340.94 468.65 327.94 436.47 327.94 436.47 279.35 436.64 279.06 436.47 278.95 436.47 269.91 431.47 269.91 431.47 277.96 403.34 324.78 391.74 324.78 364.32 279.15 364.32 271.41 359.32 271.41 359.32 280.54 359.32 280.54 359.32 280.54 359.32 327.94 335.24 327.94 335.24 233.54 361.27 233.54 395.07 289.79 393.75 291.99 397.88 294.48 397.94 294.57 397.99 294.54 398.03 294.57 398.09 294.48 402.22 291.99 400.9 289.79 434.76 233.45 468.84 233.45"/><polygon class="cls-3" points="463.67 331.71 460.42 331.71 460.13 230.25 463.65 230.25 463.65 225.38 460.11 225.38 438.98 225.38 432.97 225.38 432.97 230.25 436.09 230.25 398 294.49 359.31 230.25 362.42 230.25 362.42 225.38 356.37 225.38 335.08 225.38 331.74 225.38 331.74 230.25 335.08 230.25 335.08 331.71 331.75 331.71 331.75 336.58 335.08 336.58 359.23 336.58 362.44 336.58 362.44 331.71 359.23 331.71 359.23 271.29 391.8 324.83 403.4 324.83 436.13 269.86 436.27 331.71 432.98 331.71 432.98 336.58 436.28 336.58 436.28 336.58 460.43 336.58 460.43 336.58 463.67 336.58 463.67 331.71"/></svg>