<svg id="Capa_3" data-name="Capa 3" xmlns="http://www.w3.org/2000/svg" viewBox="0 0 1080 1080"><defs><style>.cls-1{fill:#a1aaad;}.cls-2{fill:#c8102d;}.cls-3{fill:#0a233e;}.cls-4{fill:none;}</style></defs><title>JEMO CONTRACTOR LLC full color</title><path class="cls-1" d="M315,686v-8.5H290V686h1.39v22.6l-21.57-26.16v-4.87h-25v8.5h2.28V738h-2.28v8.5h25V738h-.95V715.08L290,740.72v5.67h25v-8.5h-1.91V686Zm-5.53,51.85H292.35l-23.49-28.5V705h-3.62v33H250.7V686.11h17.42l23.26,28.22v5.26H295V686h14.46Z"/><polygon class="cls-2" points="312.2 684.27 312.2 679.76 309.71 679.76 294.97 679.76 292.34 679.76 292.34 684.27 294.97 684.27 294.97 718.91 266.61 684.27 266.71 684.27 266.71 679.76 262.91 679.76 250.57 679.76 246.86 679.76 246.86 684.27 250.57 684.27 250.57 739.73 248.13 739.73 248.13 744.24 250.57 744.24 265.31 744.24 267.98 744.24 267.98 739.73 265.31 739.73 265.31 705.09 293.75 739.73 292.34 739.73 292.34 744.24 297.46 744.24 309.71 744.24 312.2 744.24 312.2 739.73 309.71 739.73 309.71 684.27 312.2 684.27"/><path class="cls-1" d="M186.84,741.69a35.42,35.42,0,0,1-13.92-13.15,37.8,37.8,0,0,1,0-37.68,35.35,35.35,0,0,1,13.92-13.15,43.94,43.94,0,0,1,39.86,0,36.26,36.26,0,0,1,0,64,44,44,0,0,1-39.86,0Zm28.75-16.63a16.12,16.12,0,0,0,6.17-6.25,19.67,19.67,0,0,0,0-18.23,16,16,0,0,0-6.17-6.24,18.41,18.41,0,0,0-17.6,0,16,16,0,0,0-6.16,6.24,19.67,19.67,0,0,0,0,18.23,16.09,16.09,0,0,0,6.16,6.25,18.41,18.41,0,0,0,17.6,0Z"/><path class="cls-2" d="M188.69,738.71a32.09,32.09,0,0,1-12.62-11.93,34.29,34.29,0,0,1,0-34.17,32.16,32.16,0,0,1,12.62-11.93,39.91,39.91,0,0,1,36.16,0,32.25,32.25,0,0,1,17.22,29,32.25,32.25,0,0,1-17.22,29,39.91,39.91,0,0,1-36.16,0Zm28.42-11a18.8,18.8,0,0,0,7.23-7.33,23.1,23.1,0,0,0,0-21.37,18.84,18.84,0,0,0-7.23-7.32,21.56,21.56,0,0,0-20.64,0,18.84,18.84,0,0,0-7.23,7.32,23.1,23.1,0,0,0,0,21.37,18.8,18.8,0,0,0,7.23,7.33,21.63,21.63,0,0,0,20.64,0Z"/><path class="cls-1" d="M175.21,734.21l-18.28-17.05-5.8,6.21,1.57,1.46a17.16,17.16,0,0,1-8.91,2.37,18.33,18.33,0,0,1-9.07-2.22,15.81,15.81,0,0,1-6.21-6.22,19.54,19.54,0,0,1,0-18.13,15.78,15.78,0,0,1,6.21-6.21,18.23,18.23,0,0,1,9.07-2.23,17.3,17.3,0,0,1,8.8,2.28l-1.75,1.62,5.8,6.22,18.28-17L169.13,679l-1.95,1.82a34,34,0,0,0-7.73-4.68,41.58,41.58,0,0,0-16.71-3.25A41,41,0,0,0,123,677.66a35.12,35.12,0,0,0-13.81,13.1,38.17,38.17,0,0,0,0,37.88A35.26,35.26,0,0,0,123,741.74a40.83,40.83,0,0,0,19.65,4.72,41.76,41.76,0,0,0,16.76-3.25,33.32,33.32,0,0,0,7.87-4.79l2.15,2,1.14-1.23,0,0,3.39-3.64h0Z"/><path class="cls-2" d="M154.63,724.16l1.74,1.62a20.09,20.09,0,0,1-13.05,4.55,21.51,21.51,0,0,1-10.68-2.62,18.59,18.59,0,0,1-7.33-7.33,23.1,23.1,0,0,1,0-21.37,18.63,18.63,0,0,1,7.33-7.32,21.51,21.51,0,0,1,10.68-2.63,20.29,20.29,0,0,1,13,4.47l-1.72,1.6,3.08,3.3,13.2-12.31-3.08-3.3L166,684.55a30.85,30.85,0,0,0-8.24-5.25,40,40,0,0,0-33.07,1.33,31.94,31.94,0,0,0-12.53,11.89,34.64,34.64,0,0,0,0,34.36,32,32,0,0,0,12.53,11.88A37,37,0,0,0,142.49,743a38,38,0,0,0,15.2-2.94,30.35,30.35,0,0,0,8.32-5.33l1.82,1.7,3.08-3.3-13.2-12.31Z"/><path class="cls-1" d="M768,660.06h.19a11.75,11.75,0,0,0,.43-1.7c0-.09,0-.18,0-.26C768.49,658.76,768.23,659.41,768,660.06Z"/><path class="cls-1" d="M706.7,593.35c0,.53,0,1.06,0,1.59A8.46,8.46,0,0,0,706.7,593.35Z"/><path class="cls-3" d="M765.93,660.16l0,0s0,0,0-.05h0Z"/><path class="cls-1" d="M642.16,334.62c112.5,0,203.71,91.2,203.71,203.71a202.8,202.8,0,0,1-40.81,122.33h7a208.33,208.33,0,0,0,39.46-122.33C851.51,422.71,757.78,329,642.16,329c-113.29,0-205.55,90-209.23,202.38h5.65C442.25,422.08,532,334.62,642.16,334.62Z"/><path class="cls-3" d="M642.16,334.62c-110.18,0-199.91,87.46-203.58,196.74h23.95a179.77,179.77,0,1,1,311.35,129.3h31.18a202.8,202.8,0,0,0,40.81-122.33C845.87,425.82,754.66,334.62,642.16,334.62Z"/><path class="cls-1" d="M642.6,364.06a174.06,174.06,0,0,1,123.64,296.6h12A182.77,182.77,0,0,0,642.6,355.35c-98.67,0-179.07,78.2-182.64,176h8.71A174.07,174.07,0,0,1,642.6,364.06Z"/><path class="cls-4" d="M782.07,574a12.3,12.3,0,0,1,3.65-6.74c.58-.5.54-.65-.19-.94a10.24,10.24,0,0,1-2.12-1,32.44,32.44,0,0,1-3.49-2.89v14.9A5.59,5.59,0,0,0,782.07,574Z"/><path class="cls-1" d="M814.76,561h0a31.19,31.19,0,0,0-1.08-5.39,32.69,32.69,0,0,0-1.31-3.62c-2.07-4.09-4.93-9.42-9.56-11.08a19.75,19.75,0,0,1-5.64-3.2c-.31-.25-.64-.47-.69-.94a7.9,7.9,0,0,0-.11-.85l0,0c-.31-.25-.64-.47-.69-.95a19.54,19.54,0,0,0-.32-2c-.26-1.26-1.62-3.4-2-4.46-2.48-6.19-5.54-7.2-11.77-8.48a2.18,2.18,0,0,0-.67,0c-.14-.3-.52-.31-.8-.43a8.61,8.61,0,0,1,0-1.13c0-.67-.66-.52-1-.78a2.17,2.17,0,0,0-.9-.53c-2.19-.95-4.46-1.7-6.57-2.83a7.47,7.47,0,0,0-3.67-1.23,1.92,1.92,0,0,1-1.91-1.43,1.6,1.6,0,0,1,0-.23,1.57,1.57,0,0,0,.83-1.16h0c.36.08-.51.85-.46.56.09-.45.16-.91.24-1.37h0v-.91a7.71,7.71,0,0,0,.39-2.14,6.43,6.43,0,0,1,.22-2.27l2.1-.3c2-.33,2.32-3.54,2.79-5.53a7.63,7.63,0,0,1,.81-2,18.64,18.64,0,0,0,2.11-5.1c.75-3.23,1.7-7.46.75-10.67a20.15,20.15,0,0,0-1.54-3.8,16.11,16.11,0,0,0-3.9-5.87,32.9,32.9,0,0,1-4.56-5,10.1,10.1,0,0,0-.78-.83,1.06,1.06,0,0,0-.54-.34c-.18-.19-.38-.38-.55-.58a1.27,1.27,0,0,0-1.05-.42c-1.95,0-4.9,0-6.85,0a14,14,0,0,0-1.59,0h-.67a7,7,0,0,0-4.15.86c-1.25.81-2.83,1-3.93,2.14a2.26,2.26,0,0,1-.35.28,13.16,13.16,0,0,0-5.34-.57,12.58,12.58,0,0,0-4.84.55c-1.59.5-2.51.87-3.3,2.16a8,8,0,0,0-.67,5.33,6.77,6.77,0,0,0,.34,1.08c.41,1,.85,1.94,1.27,2.91-.15.31-.23.59,0,.77-.45.46.33.43.29.73s.1.33.22.22h0l.23.08a2.94,2.94,0,0,0-.91,1.69,2.36,2.36,0,0,1-.4,1.12c-.85,1.3-2.13,2.73-2,4.24a2.65,2.65,0,0,1,0,.27,1.56,1.56,0,0,0-.24,1.05,1.55,1.55,0,0,1-.68.5,1.52,1.52,0,0,0-1.05,1.86,1.12,1.12,0,0,1-.24.92,4,4,0,0,0-.76,2.35,19.7,19.7,0,0,1-.18,2.42,4.64,4.64,0,0,0-.13,1.66,3.23,3.23,0,0,1-.94,3c-1.33,1.52-1,3.08.88,3.89,1.46.64,1.83.45,3.12,1.4a5,5,0,0,1,1.79,2.41c-.33.2-1.5,2.78-2.62,3.79a4.47,4.47,0,0,1-.71-.77,23.46,23.46,0,0,0-3.07-3.6,31.37,31.37,0,0,0-8.88-5.73,24.48,24.48,0,0,0-7.21-1.36,1.79,1.79,0,0,1-1.82-1.2c-.27-.63-.6-1.22-.87-1.85-1.78-4.11-4.07-4.45-8-4.21-.47,0-.94.06-1.41.1.14-.15.27-.31.41-.45a7.07,7.07,0,0,0,2.09-3.71c.27-.84.53-1.68.78-2.53a7.38,7.38,0,0,1,1.56-3.22,18,18,0,0,1,1.83-2,2,2,0,0,0,1.66.81c.75,0,1.18.18,1.32,1,.08.49.31,1,1,1a1.62,1.62,0,0,1,1.45.64c.8.89,5.16,1.55,6.39,1.36a26,26,0,0,0,4.4-.85c1.58-.44,3.07-2.13,4.44-3.05a1.5,1.5,0,0,0,.65-1.38,33.21,33.21,0,0,0-.86-5.61,4.91,4.91,0,0,0-.88-1.92c-.37-1.53-1.28-4.63-2.71-5.32a49.22,49.22,0,0,0-11.15-4.07,34.91,34.91,0,0,0-4.64-1.14,6.14,6.14,0,0,0-2.49,0,4.52,4.52,0,0,0-4,1,14.5,14.5,0,0,1-3.72,2.36c-7.2,3.34-13.79,8.65-19.93,13.65-3.31,2.7-6,6-9.41,8.68-1.87,1.47-4.35,4.14-3.51,6.47a92,92,0,0,0,4.51,10.32c1.16,2.38,2.42,4.72,3.76,7,2.2,3.76,5.09,8.76,8.11,11.92,1.35,1.42,3.14,4.22,5.07,4.81,1.18.35,3.17.8,4.37,1.12,2.31.63,8.42,2.45,8.9,4.52.4,1.7.69,3.42,1.1,5.11a73.49,73.49,0,0,0,10.82,24.07,2.22,2.22,0,0,1,.39,1.35c0,8.33-.21,16.34-.21,24.68,0,1.06,0,2.12.07,3.18s.28,2.2-.57,3.17a2.22,2.22,0,0,0-.35,1.37,13.24,13.24,0,0,0,.13,2.35c.08.59.29.92.85.89a11.1,11.1,0,0,0,.12,1.51c.09.67.32,1,1,.92,0,.76-1,1.51-1.1,2.27a4.47,4.47,0,0,0,0,2,4.45,4.45,0,0,1-.23,1.93,5.24,5.24,0,0,0-.58,2.32c-1.59.15-2,.49-2.12,1.91,0,.63-.21,1-.92.84a1.22,1.22,0,0,0-.93.26,9,9,0,0,0-2.61,4.15.76.76,0,0,0,0,.76c.15.22,2-.11,2.59.6a9.63,9.63,0,0,1,1,3.24c.09.63.23,2.26.68,2.69,0,.87,0,1.74,0,2.62s.19,1.15.93,1.1c0,.83,0,1.66,0,2.49s.2,1.21,1,1.16c0,4.58.95,9.16,1.07,13.75a10.93,10.93,0,0,0,0,1.28c.25,2,.52,4,.79,6a12.82,12.82,0,0,0,.41,3.2l.15,1.27h5.28l-.24-2.14a12.82,12.82,0,0,1-.41-3.2c-.27-2-.54-4-.79-6v0a9.43,9.43,0,0,1,0-1.19s0-.06,0-.09a1.7,1.7,0,0,1,0-.22c-.1-4.13-.08-8.25-.06-12.38,0-1.29,0-2.59,0-3.88,0-.65-.12-1-.83-.93-.86.11-1.1-.25-1.07-1.1,0-1.64,0-3.29,0-4.93,0-.27.06-.55-.3-.7-.88-.34-1.08-1.15-1.2-2a8.51,8.51,0,0,1,0-2.57,1.2,1.2,0,0,0,0-.19c0-.28-.18-.37-.53-.35l-.22,0a6.86,6.86,0,0,0-1,.22l-.6.18a4.15,4.15,0,0,1-.61.14c-.27,0-.64.21-.79,0s.07-.59.26-.81a20.66,20.66,0,0,1,3.31-3.1,1.22,1.22,0,0,1,.93-.27c.71.13.87-.2.92-.83.07-.89.26-1.36.78-1.62l.11,0,.08,0a4.26,4.26,0,0,1,1.15-.22,5.24,5.24,0,0,1,.58-2.32,4.45,4.45,0,0,0,.23-1.93,4.32,4.32,0,0,1,0-2c0-.16,0-.31.05-.47a12.79,12.79,0,0,0-.15-3.6c-.08-.49-.24-.74-.76-.64-.72.14-.94-.23-1-.89v0a13.88,13.88,0,0,1-.12-2.32,2.26,2.26,0,0,1,.35-1.38,2.4,2.4,0,0,0,.6-1.39,9.4,9.4,0,0,0,0-1.59,1.09,1.09,0,0,1,0-.18c-.06-1.06-.07-2.12-.07-3.19q0-11.89,0-23.81v-1.18a2.3,2.3,0,0,0-.4-1.35,76.48,76.48,0,0,1-10.61-24.75c-.42-1.69-.71-3.41-1.1-5.11a6.34,6.34,0,0,0-3.71-4.32,36.48,36.48,0,0,0-6.82-2.22c-1.19-.33-2.4-.61-3.58-1a11.17,11.17,0,0,1-4.74-3.3,56,56,0,0,1-7.6-10.56A94.54,94.54,0,0,1,668,496.89a4.13,4.13,0,0,1,1.45-5.24c3.24-2.54,5.86-5.75,9-8.34a90.83,90.83,0,0,1,19.13-12.15,13.63,13.63,0,0,0,3.57-2.27l.18-.14a4,4,0,0,1,2.59-.9,7.9,7.9,0,0,1,1.35.13c.67.11,1.34.26,2,.42a50.61,50.61,0,0,1,10.38,3.9l.31.16a4.83,4.83,0,0,1,2.44,3.25,34.56,34.56,0,0,1,.81,5.14c0,.16,0,.31,0,.46a1.47,1.47,0,0,1-.65,1.38,11.42,11.42,0,0,1-1.05.65,15.31,15.31,0,0,1-2.84,1.25l.1.09c-.13,0-.19-.05-.1-.09-.87,0-3.56,0-4.18-.72a2.19,2.19,0,0,0-.51-.42,1.27,1.27,0,0,0-.57-.21,1.51,1.51,0,0,0-.37,0c-.66.07-.89-.47-1-1l0-.12c-.16-.69-.58-.89-1.29-.86a1.82,1.82,0,0,1-.91-.2,2.91,2.91,0,0,1-1.13-1.15c-.06-.1-.11-.2-.17-.29l-.2-.37c-.21-.37-.42-.75-.66-1.1a2.22,2.22,0,0,0-.47-.52,1,1,0,0,0-1.29,0l-.1.06c-.51.34-1,.69-1.5,1.06a22.15,22.15,0,0,0-4.22,4c-1,1.25-1.13,2.79-1.56,4.23-.25.84-.51,1.69-.78,2.52a12.25,12.25,0,0,1-3.08,4.71,12.46,12.46,0,0,0-1,1.17,1.13,1.13,0,0,0-.1.13c-.1.13-.21.25-.3.39-.29.47-.18.73.38.7l2.88-.21.74,0a12.85,12.85,0,0,1,2.76.27c.33.07.65.15,1,.24a8.39,8.39,0,0,1,5.5,4.73c.27.63.61,1.22.88,1.85a2.11,2.11,0,0,0,.31.53,1.75,1.75,0,0,0,1.51.67c.89,0,1.78,0,2.67,0a35.26,35.26,0,0,1,3.54.32c.29,0,.58.11.86.17l.27.05a16.78,16.78,0,0,1,7.75,4.51,39.41,39.41,0,0,1,4.06,4.6,4,4,0,0,0,1.13,1.08l.29.14a2.3,2.3,0,0,0,1.88-.15,2.73,2.73,0,0,0,.31-.14l.48-.28a5.6,5.6,0,0,1,1-.62c2.86-1,5.12-5.29,5.39-5.23a.17.17,0,0,0,.15,0c0-.05,0-.09-.07-.15a4.9,4.9,0,0,0-1.72-2.25,21.51,21.51,0,0,0-4.12-2.4c-1.84-.81-2.21-2.37-.88-3.89a3.25,3.25,0,0,0,.94-3,4.6,4.6,0,0,1,.13-1.65,19.7,19.7,0,0,0,.18-2.42,4,4,0,0,1,.76-2.35,1.08,1.08,0,0,0,.23-.92,1.49,1.49,0,0,1,.8-1.74l.26-.13a1.31,1.31,0,0,0,.92-1.4,3,3,0,0,0,0-.41,6.31,6.31,0,0,1,1-4.24,2.36,2.36,0,0,0,.4-1.12,2.94,2.94,0,0,1,.91-1.69l-.23-.09h0c-.12.12-.31,0-.22-.22s-.74-.26-.29-.72v-.77c-.43-1-.86-1.93-1.27-2.91a7.11,7.11,0,0,1-.34-1.08,2.69,2.69,0,0,1,.82-2.88,2.49,2.49,0,0,1,.38-.25,3.82,3.82,0,0,1,.84-.38,11.07,11.07,0,0,1,1.56-.38,12.51,12.51,0,0,1,5.7.32l.38.11.33.1a1.91,1.91,0,0,0,1.69-.06,2.29,2.29,0,0,0,.45-.35,4.58,4.58,0,0,1,1.22-.84c.81-.42,1.7-.69,2.47-1.17l.09,0a4.87,4.87,0,0,1,1.9-.72,10.88,10.88,0,0,1,2.07-.11c1.88,0,3.75,0,5.62,0a1.19,1.19,0,0,1,1,.4l.12.12a5.5,5.5,0,0,1,.66.71,33.39,33.39,0,0,0,4.56,4.95,17.06,17.06,0,0,1,4.58,7.83,18.52,18.52,0,0,1,.65,7.34,19,19,0,0,1-.39,2.34,18.61,18.61,0,0,1-2.12,5.09,7.29,7.29,0,0,0-.8,2,4.81,4.81,0,0,1-1.21,2.28,4.18,4.18,0,0,1-.5.43,4.43,4.43,0,0,1-1.25.62l-.14.05-.16,0a4.28,4.28,0,0,1-.54.12l-.17,0-.16,0-.16,0-.81.12-.8.11c0,.1,0,.21-.08.31a8.06,8.06,0,0,0-.14,2,7.78,7.78,0,0,1-.39,2.15c0,.3,0,.6,0,.91h0c-.08.46-.15.91-.24,1.37-.06.29-.18.51-.54.44h0a1.49,1.49,0,0,1-.83,1.16,2,2,0,0,0,0,.24,18.91,18.91,0,0,0,1.08,3.18c.09.2.26.37.25.61a2.3,2.3,0,0,0,.3.67,1.46,1.46,0,0,0,.51.48,1.93,1.93,0,0,0,.73.26,4.3,4.3,0,0,0,.89.06l.28,0a7.65,7.65,0,0,1,3.32,1.17l.07,0,.32.16c2,1,4.18,1.77,6.26,2.67a2.44,2.44,0,0,1,.84.48l.06,0a.93.93,0,0,0,.2.1c.27.1.59.13.73.4a.58.58,0,0,1,.06.28c0,.48-.14,1.08.1,1.4a.56.56,0,0,0,.51.17,4.08,4.08,0,0,1,.85,0l.18,0c7.2,1.53,12.84,5.39,14.63,13.9a19.54,19.54,0,0,1,.32,2c0,.48.37.7.68,1,.56.44,1.15.85,1.75,1.24,1.23.79,4.9,3.35,7.78,4a25.29,25.29,0,0,1,6.93,9.8c2.07,4.62,2.06,10.44,1.72,15.63-.17.29-.28.43-.27.32a60.41,60.41,0,0,0-6.75,5.81c-3.53,3.45-6,7.75-10.46,10.17a27.17,27.17,0,0,1-3.5,1.47q-2.92,1-5.91,1.73c-1.62.41-3.24.76-4.88,1.08l-.77.16a4.73,4.73,0,0,0-1.39.51,4.48,4.48,0,0,0-.47.28,1.91,1.91,0,0,0-1,2.07,1,1,0,0,1,0,.59.81.81,0,0,1-.36.42,1.88,1.88,0,0,1-.38.15,6.44,6.44,0,0,1-1.38.4c-.5,0-.55.34-.39.74l0,.17.27,1.06c.23,0,.29-.17.41-.29a2.33,2.33,0,0,1,1.58-.72h.15a1.64,1.64,0,0,1,.38,0l.06,0,.13,0h0l.2.07a2.14,2.14,0,0,1,.38.23,1.71,1.71,0,0,1,.25.22.46.46,0,0,1,.07.07c0,.06.11.1.15.16a2.61,2.61,0,0,1,.34.56.06.06,0,0,1,0,0c0,.05,0,.1,0,.14a5.43,5.43,0,0,1,.31,1.48q0,.54.06,1.08c.27.13.4-.09.56-.18a1.27,1.27,0,0,1,2,1,5.18,5.18,0,0,1,.1,1.1,8.14,8.14,0,0,1-.13,1.21c-.09.53-.22,1.06-.33,1.59-.3,1.38-.72,2.73-.92,4.14a1.46,1.46,0,0,1-1.18,1.4c-.31.06-.36.22-.37.46-.1,1.85-.2,3.69-.32,5.54,0,.38.23.39.49.41h.17a21.24,21.24,0,0,0,2.26-.1l.3,0a3.72,3.72,0,0,1,.76.06,2.37,2.37,0,0,1,1.14.57,2.17,2.17,0,0,1,.61,1.79,2,2,0,0,1-1.16,1.61h0a2.93,2.93,0,0,1-.88.27c-.45.06-.58.22-.62.63a9,9,0,0,1-.51,2.52c-.12.33-.19.76-.44,1-1.22.9-1,2.27-1.21,3.49-.25,1.47-.44,3-.6,4.44-.05.49-.23.55-.66.53-1.36-.07-1.36-.05-1.36,1.32,0,1.88,0,3.75,0,5.63,0,.38,0,.66-.49.78s-.59.52-.61,1c0,1.69-.17,3.38-.38,5.07-.08.64.16,1.3.06,2a6.38,6.38,0,0,1-.86,2.32,2.41,2.41,0,0,1-.29,1.24,11.22,11.22,0,0,1-.43,1.66,5.12,5.12,0,0,0-.32,2.12,9.91,9.91,0,0,1,.5,2.57l0,.41c0,.13,0,.25,0,.38h4.94a10.39,10.39,0,0,0-.53-2.86,7.78,7.78,0,0,1,0-1,6,6,0,0,0,.47-1.58c0-.07,0-.14,0-.2.08-.34.14-.69.22-1a2.34,2.34,0,0,0,.29-1.24,6.4,6.4,0,0,0,.87-2.32c.09-.67-.15-1.32-.07-2q.31-2.52.39-5.07a.88.88,0,0,1,.61-.95c.45-.12.49-.4.49-.79,0-.94-1-1.88-1-2.82H780c.45,0,.64,0,.7-.55.12-1.2,1.28-2.39,1.46-3.58h.12c.42,0,.61,0,.66-.53.14-1.36.32-2.71.54-4.06l.1-.09c.26-.19.33-.64.46-1a9.84,9.84,0,0,0,.53-2.62v0c.06,0,.11-.11.18-.16a.89.89,0,0,0,.27-.44l.19-.05a2.23,2.23,0,0,0,1.6-3.72,2,2,0,0,0,1.57-1.77c.08-.85,1-7-2.36-6.26a9.65,9.65,0,0,1-2.28.13c0-.6.07-1.2.1-1.79a1.72,1.72,0,0,0,.51-1.08c.09-.63.22-1.24.37-1.85a1.56,1.56,0,0,0,.81-1.27c.19-1.4.62-.76.91-2.14a9,9,0,0,0,.36-3.89,1.35,1.35,0,0,0-.76-1.07,4,4,0,0,0-.09-.77,1.25,1.25,0,0,0-1.9-1,4,4,0,0,0-.23-.69,2.49,2.49,0,0,0-.56-.8,4.92,4.92,0,0,0-.3-1c-.27-.62.27,0-.26-.26a.82.82,0,0,0,.22-.7,5,5,0,0,1,1.68-.66c4.08-.77,6.1-1.77,10-3.1,5.09-1.71,9.24-4.86,13-8.55,2.65-2.59,5-5.47,8-7.69a1.92,1.92,0,0,0,.83-1.25c.2-1-.75-2.93-.67-3.9C816,567.66,815.08,563.32,814.76,561Z"/><polygon class="cls-1" points="732.35 479.42 732.35 479.43 732.36 479.42 732.36 479.41 732.35 479.42"/><path class="cls-1" d="M747.3,658.36a.13.13,0,0,1,0-.06,2,2,0,0,1-.06-.26c-.18-.86-.34-1.73-.45-2.6,0,0,0,0,0-.05l-.06-.18-.06-.17L745.57,652c-.07-.21-.11-.49-.38-.5s-.26.27-.33.45a16.9,16.9,0,0,0-.66,2.31,5.61,5.61,0,0,1-.47,2.18l-.05.17a.24.24,0,0,1,0,.08.09.09,0,0,1,0,.05c-.29,1-.27,2.11-.51,3.15,0,0,0,.11,0,.16h4.55c-.12-.46-.22-.93-.32-1.4Z"/><path class="cls-1" d="M776.27,558.2a3.24,3.24,0,0,0-.31,1.59q0,9.66,0,19.32v1.52c.13-.13.26-.23.38-.35a13.8,13.8,0,0,1,2.26-1.74c.16-.1.32-.17.48-.26s.56-.31.85-.44a11.9,11.9,0,0,1,1.34-.5l.58-.2a6.07,6.07,0,0,0,1.16-.61,5.56,5.56,0,0,0,2.26-3.42,12.73,12.73,0,0,1,3.2-6.31c.15-.14.29-.29.45-.43a1.27,1.27,0,0,0,.39-.45c.06-.18-.13-.31-.58-.5l-.17-.06a8.91,8.91,0,0,1-1.95-.92,31.28,31.28,0,0,1-6.24-5.91l-.52-.68c-.19-.25-.38-.5-.56-.76-.31-.45-.61-.91-.89-1.38-.18-.29-.34-.58-.51-.86-.19.86-1.07,1.47-.75,2.42a.21.21,0,0,1-.09.18A1.92,1.92,0,0,0,776.27,558.2Z"/><path class="cls-3" d="M809.07,552.9a20.1,20.1,0,0,0-6.34-8.4,16.21,16.21,0,0,0-2.56-1.17,20.57,20.57,0,0,1-5.22-2.85c-.6-.39-1.19-.8-1.75-1.24-.31-.25-.64-.47-.68-1a19.54,19.54,0,0,0-.32-2c-1.79-8.51-7.43-12.37-14.63-13.9l-.18,0a4.08,4.08,0,0,0-.85,0,.56.56,0,0,1-.51-.17c-.24-.32-.08-.92-.1-1.4a.58.58,0,0,0-.06-.28c-.14-.27-.46-.3-.73-.4a.93.93,0,0,1-.2-.1l-.06,0a2.44,2.44,0,0,0-.84-.48c-2.08-.9-4.23-1.64-6.26-2.67l-.32-.16-.07,0a7.65,7.65,0,0,0-3.32-1.17l-.28,0a4.3,4.3,0,0,1-.89-.06,1.93,1.93,0,0,1-.73-.26,1.46,1.46,0,0,1-.51-.48,2.3,2.3,0,0,1-.3-.67c0-.24-.16-.41-.25-.61a18.91,18.91,0,0,1-1.08-3.18,2,2,0,0,1,0-.24,1.49,1.49,0,0,0,.83-1.16h0c.36.07.48-.15.54-.44.09-.46.16-.91.24-1.37h0c0-.31,0-.61,0-.91a7.78,7.78,0,0,0,.39-2.15,8.06,8.06,0,0,1,.14-2c0-.1,0-.21.08-.31l.8-.11.81-.12.16,0,.16,0,.17,0a4.28,4.28,0,0,0,.54-.12l.16,0,.14-.05a4.43,4.43,0,0,0,1.25-.62,4.18,4.18,0,0,0,.5-.43,4.81,4.81,0,0,0,1.21-2.28,7.29,7.29,0,0,1,.8-2,18.61,18.61,0,0,0,2.12-5.09,19,19,0,0,0,.39-2.34,18.52,18.52,0,0,0-.65-7.34,17.06,17.06,0,0,0-4.58-7.83,33.39,33.39,0,0,1-4.56-4.95,5.5,5.5,0,0,0-.66-.71l-.12-.12a1.19,1.19,0,0,0-1-.4c-1.87,0-3.74,0-5.62,0a10.88,10.88,0,0,0-2.07.11,4.87,4.87,0,0,0-1.9.72l-.09,0c-.77.48-1.66.75-2.47,1.17a4.58,4.58,0,0,0-1.22.84,2.29,2.29,0,0,1-.45.35,1.91,1.91,0,0,1-1.69.06l-.33-.1-.38-.11a12.51,12.51,0,0,0-5.7-.32,11.07,11.07,0,0,0-1.56.38,3.82,3.82,0,0,0-.84.38,2.49,2.49,0,0,0-.38.25,2.69,2.69,0,0,0-.82,2.88,7.11,7.11,0,0,0,.34,1.08c.41,1,.84,1.94,1.27,2.91-.15.3-.23.59,0,.77-.45.46.33.43.29.72s.1.34.22.22h0l.23.09a2.94,2.94,0,0,0-.91,1.69,2.36,2.36,0,0,1-.4,1.12,6.31,6.31,0,0,0-1,4.24,3,3,0,0,1,0,.41,1.31,1.31,0,0,1-.92,1.4l-.26.13a1.49,1.49,0,0,0-.8,1.74,1.08,1.08,0,0,1-.23.92,4,4,0,0,0-.76,2.35,19.7,19.7,0,0,1-.18,2.42,4.6,4.6,0,0,0-.13,1.65,3.25,3.25,0,0,1-.94,3c-1.33,1.52-1,3.08.88,3.89a21.51,21.51,0,0,1,4.12,2.4A4.9,4.9,0,0,1,737,509c0,.06,0,.1.07.15a.17.17,0,0,1-.15,0c-.27-.06-.51-.56-.77.05a11.64,11.64,0,0,1-4.62,5.18l-1,.62-.48.28a2.73,2.73,0,0,1-.31.14,2.3,2.3,0,0,1-1.88.15l-.29-.14a4,4,0,0,1-1.13-1.08,39.41,39.41,0,0,0-4.06-4.6,16.78,16.78,0,0,0-7.75-4.51l-.27-.05c-.28-.06-.57-.13-.86-.17a35.26,35.26,0,0,0-3.54-.32c-.89,0-1.78-.05-2.67,0a1.75,1.75,0,0,1-1.51-.67,2.11,2.11,0,0,1-.31-.53c-.27-.63-.61-1.22-.88-1.85a8.39,8.39,0,0,0-5.5-4.73c-.32-.09-.64-.17-1-.24a12.85,12.85,0,0,0-2.76-.27l-.74,0-2.88.21c-.56,0-.67-.23-.38-.7.09-.14.2-.26.3-.39a1.13,1.13,0,0,1,.1-.13,12.46,12.46,0,0,1,1-1.17,12.25,12.25,0,0,0,3.08-4.71c.27-.83.53-1.68.78-2.52.43-1.44.57-3,1.56-4.23a22.15,22.15,0,0,1,4.22-4c.48-.37,1-.72,1.5-1.06l.1-.06a1,1,0,0,1,1.29,0,2.22,2.22,0,0,1,.47.52c.24.35.45.73.66,1.1l.2.37c.06.09.11.19.17.29a2.91,2.91,0,0,0,1.13,1.15,1.82,1.82,0,0,0,.91.2c.71,0,1.13.17,1.29.86l0,.12c.08.49.31,1,1,1a1.51,1.51,0,0,1,.37,0,1.27,1.27,0,0,1,.57.21,2.19,2.19,0,0,1,.51.42,3.06,3.06,0,0,0,2.23,1.13,2.8,2.8,0,0,0,.75-.07c.41-.1.81-.21,1.2-.34a15.31,15.31,0,0,0,2.84-1.25,11.42,11.42,0,0,0,1.05-.65,1.47,1.47,0,0,0,.65-1.38c0-.15,0-.3,0-.46a34.56,34.56,0,0,0-.81-5.14,4.83,4.83,0,0,0-2.44-3.25l-.31-.16a50.61,50.61,0,0,0-10.38-3.9c-.66-.16-1.33-.31-2-.42a7.9,7.9,0,0,0-1.35-.13,4,4,0,0,0-2.59.9l-.18.14a13.63,13.63,0,0,1-3.57,2.27,90.83,90.83,0,0,0-19.13,12.15c-3.18,2.59-5.8,5.8-9,8.34a4.13,4.13,0,0,0-1.45,5.24,94.54,94.54,0,0,0,7.37,15.47,56,56,0,0,0,7.6,10.56,11.17,11.17,0,0,0,4.74,3.3c1.18.36,2.39.64,3.58,1a36.48,36.48,0,0,1,6.82,2.22,6.34,6.34,0,0,1,3.71,4.32c.39,1.7.68,3.42,1.1,5.11a76.48,76.48,0,0,0,10.61,24.75,2.3,2.3,0,0,1,.4,1.35v1.18q0,11.91,0,23.81c0,1.07,0,2.13.07,3.19a1.09,1.09,0,0,0,0,.18,9.4,9.4,0,0,1,0,1.59,2.4,2.4,0,0,1-.6,1.39,2.26,2.26,0,0,0-.35,1.38,13.88,13.88,0,0,0,.12,2.32v0c.09.66.31,1,1,.89.52-.1.68.15.76.64a12.79,12.79,0,0,1,.15,3.6c0,.16,0,.31-.05.47a4.32,4.32,0,0,0,0,2,4.45,4.45,0,0,1-.23,1.93,5.24,5.24,0,0,0-.58,2.32,4.26,4.26,0,0,0-1.15.22l-.08,0-.11,0c-.52.26-.71.73-.78,1.62,0,.63-.21,1-.92.83a1.22,1.22,0,0,0-.93.27,20.66,20.66,0,0,0-3.31,3.1c-.19.22-.44.55-.26.81s.52.06.79,0a4.15,4.15,0,0,0,.61-.14l.6-.18a6.86,6.86,0,0,1,1-.22l.22,0c.35,0,.52.07.53.35a1.2,1.2,0,0,1,0,.19,8.51,8.51,0,0,0,0,2.57c.12.81.32,1.62,1.2,2,.36.15.29.43.3.7,0,1.64.09,3.29,0,4.93,0,.85.21,1.21,1.07,1.1.71-.09.83.28.83.93,0,1.29,0,2.59,0,3.88,0,4.13,0,8.25.06,12.38a1.7,1.7,0,0,0,0,.22s0,.06,0,.09a9.43,9.43,0,0,0,0,1.19v0c.25,2,.52,4,.79,6a12.82,12.82,0,0,0,.41,3.2l.24,2.14h27.72s0-.11,0-.16c.24-1,.22-2.11.51-3.15a.09.09,0,0,0,0-.05.24.24,0,0,0,0-.08l.05-.17a5.61,5.61,0,0,0,.47-2.18,16.9,16.9,0,0,1,.66-2.31c.07-.18.08-.46.33-.45s.31.29.38.5l1.07,3.08.06.17.06.18s0,0,0,.05c.11.87.27,1.74.45,2.6a2,2,0,0,0,.06.26.13.13,0,0,0,0,.06l.06.25c.1.47.2.94.32,1.4h25.51c0-.13,0-.25,0-.38l0-.41a9.91,9.91,0,0,0-.5-2.57,5.12,5.12,0,0,1,.32-2.12,11.22,11.22,0,0,0,.43-1.66,2.41,2.41,0,0,0,.29-1.24,6.38,6.38,0,0,0,.86-2.32c.1-.66-.14-1.32-.06-2,.21-1.69.34-3.38.38-5.07,0-.44.16-.84.61-1s.49-.4.49-.78c0-1.88,0-3.75,0-5.63,0-1.37,0-1.39,1.36-1.32.43,0,.61,0,.66-.53.16-1.49.35-3,.6-4.44.22-1.22,0-2.59,1.21-3.49.25-.19.32-.62.44-1a9,9,0,0,0,.51-2.52c0-.41.17-.57.62-.63a2.93,2.93,0,0,0,.88-.27h0a2,2,0,0,0,1.16-1.61,2.17,2.17,0,0,0-.61-1.79,2.37,2.37,0,0,0-1.14-.57,3.72,3.72,0,0,0-.76-.06l-.3,0a21.24,21.24,0,0,1-2.26.1h-.17c-.26,0-.51,0-.49-.41.12-1.85.22-3.69.32-5.54,0-.24.06-.4.37-.46a1.46,1.46,0,0,0,1.18-1.4c.2-1.41.62-2.76.92-4.14.11-.53.24-1.06.33-1.59a8.14,8.14,0,0,0,.13-1.21,5.18,5.18,0,0,0-.1-1.1,1.27,1.27,0,0,0-2-1c-.16.09-.29.31-.56.18q0-.54-.06-1.08a5.43,5.43,0,0,0-.31-1.48s0-.09,0-.14a.06.06,0,0,0,0,0,2.61,2.61,0,0,0-.34-.56c0-.06-.1-.1-.15-.16a.46.46,0,0,0-.07-.07,1.71,1.71,0,0,0-.25-.22,2.14,2.14,0,0,0-.38-.23l-.2-.07h0l-.13,0-.06,0a1.64,1.64,0,0,0-.38,0h-.15a2.33,2.33,0,0,0-1.58.72c-.12.12-.18.32-.41.29l-.27-1.06,0-.17c-.16-.4-.11-.71.39-.74a6.44,6.44,0,0,0,1.38-.4,1.88,1.88,0,0,0,.38-.15.81.81,0,0,0,.36-.42,1,1,0,0,0,0-.59,1.91,1.91,0,0,1,1-2.07,4.48,4.48,0,0,1,.47-.28,4.73,4.73,0,0,1,1.39-.51l.77-.16c1.64-.32,3.26-.67,4.88-1.08q3-.75,5.91-1.73a27.17,27.17,0,0,0,3.5-1.47,37.52,37.52,0,0,0,9-6.74c2.55-2.5,4.84-5.26,7.73-7.39a1.87,1.87,0,0,0,.79-1.2,23.91,23.91,0,0,0,.32-2.78A30.93,30.93,0,0,0,809.07,552.9ZM776,579.7v-.59q0-9.66,0-19.32a3.24,3.24,0,0,1,.31-1.59,1.92,1.92,0,0,1,.77-.75.21.21,0,0,0,.09-.18c-.32-.95.56-1.56.75-2.42.17.28.33.57.51.86.28.47.58.93.89,1.38.18.26.37.51.56.76l.52.68a31.28,31.28,0,0,0,6.24,5.91,8.91,8.91,0,0,0,1.95.92l.17.06c.45.19.64.32.58.5a1.27,1.27,0,0,1-.39.45c-.16.14-.3.29-.45.43a12.73,12.73,0,0,0-3.2,6.31,5.56,5.56,0,0,1-2.26,3.42,6.07,6.07,0,0,1-1.16.61l-.58.2a11.9,11.9,0,0,0-1.34.5c-.29.13-.57.29-.85.44s-.32.16-.48.26a13.8,13.8,0,0,0-2.26,1.74c-.12.12-.25.22-.38.35Z"/><polygon class="cls-3" points="735.55 478.54 735.54 478.55 735.54 478.55 735.55 478.54"/><polygon class="cls-3" points="735.54 478.55 735.54 478.55 735.54 478.55 735.54 478.55"/><path class="cls-3" d="M773.22,660.06a.43.43,0,0,0,0,0h0a.34.34,0,0,1,0,.1Z"/><circle class="cls-1" cx="593.08" cy="443.5" r="21.35"/><path class="cls-2" d="M678.28,468.78l-27.2-23.15V421.28H621.81v15.94L593,408.42l-37.33,37.32H517.09L490.32,468.9h34.51v45.72H651.08V468.78ZM597.9,428.83a16.17,16.17,0,0,1,11.4,11.23,1.6,1.6,0,0,0,.05.21,1.6,1.6,0,0,1-.05-.21H597.9V428.83a15.66,15.66,0,0,0-8.3,0v11.23H578.2a16.13,16.13,0,0,1,11.4-11.23m-11.52,19.53H589.6V460A16.18,16.18,0,0,1,578.08,448.36ZM597.9,460V448.36h11.51A16.19,16.19,0,0,1,597.9,460Z"/><path class="cls-1" d="M682.87,468.45l-28-24.38V417.19H617.6v10.64l-22.07-22.07-2.83-2.83-2.83,2.83-36.06,36.06H515.29v.07l-31,26.91-4.6,4h41v45.65H654.82v-46h32.65Zm-32,0v46H524.74V468.8H490.43l26.43-23h38.61l4-4,33.23-33.23,24.9,24.9,4,4,0-16.27h29.22v24.7l4,3.48,21.95,19.08Z"/><path class="cls-1" d="M440,738h-3.37l-9.42-13.45a23.11,23.11,0,0,0,7.77-7.24,24.11,24.11,0,0,0,3.81-13.66A24.58,24.58,0,0,0,435,689.9,24.32,24.32,0,0,0,424.3,681a39.49,39.49,0,0,0-16.4-3.15H374.26v5h.11v3.52h2.38V738h-2.38v8.5h25V738H398.1V729.7h8.41L415,741.79v4.67h25Zm-32.76-43.38q5.4,0,8.22,2.33a9.34,9.34,0,0,1,0,13.36q-2.82,2.37-8.22,2.37h-9.77V694.58Z"/><path class="cls-2" d="M437,739.87h-3.15l-11.31-16.22a21,21,0,0,0,13.26-20.36,22.35,22.35,0,0,0-3.41-12.43,22.13,22.13,0,0,0-9.72-8.11,35.83,35.83,0,0,0-14.87-2.85H377.27v4.51h2.6v55.46h-2.6v4.51h19.85v-4.51h-2.33V726.42h13.72l9.32,13.45h-.71v4.51H437Zm-30-25.34H394.79V692.06H407q6.72,0,10.22,2.9c2.34,1.93,3.5,4.71,3.5,8.33a10.24,10.24,0,0,1-3.5,8.3Q413.67,714.53,407,714.53Z"/><path class="cls-1" d="M519.52,737.94h-3.46L491.7,683.46v-6h-25v6.42l-24.09,54h-3.67v8.5h25v-6.89l2.48-6.12H491.9l2.62,6.5v6.49h25Zm-46.38-21.6,6.06-14.64,6.06,14.64Z"/><path class="cls-2" d="M516.69,739.71h-3.22l-24.8-55.46h.45v-4.51H469.26v4.51h.64l-24.72,55.46H441.7v4.51h19.86v-4.51h-1.23l3.84-9.31h29.94l3.85,9.31h-1.12v4.51h19.85ZM469,719.07l10.22-24.68,10.22,24.68Z"/><path class="cls-1" d="M975.85,738.77l-18.28-17-5.8,6.21,1.57,1.46a17.16,17.16,0,0,1-8.91,2.37,18.33,18.33,0,0,1-9.07-2.22,15.81,15.81,0,0,1-6.21-6.22,19.54,19.54,0,0,1,0-18.13,15.78,15.78,0,0,1,6.21-6.21,18.23,18.23,0,0,1,9.07-2.23,17.36,17.36,0,0,1,8.8,2.28l-1.75,1.62,5.8,6.22,18.28-17-5.79-6.22-1.95,1.82a34.18,34.18,0,0,0-7.73-4.68,41.58,41.58,0,0,0-16.71-3.25,41,41,0,0,0-19.75,4.73,35.12,35.12,0,0,0-13.81,13.1,38.17,38.17,0,0,0,0,37.88,35.26,35.26,0,0,0,13.81,13.1A40.77,40.77,0,0,0,943.28,751,41.76,41.76,0,0,0,960,747.77a33.32,33.32,0,0,0,7.87-4.79l2.15,2,1.14-1.23,0,0,3.39-3.64h0Z"/><path class="cls-3" d="M955.27,728.72l1.74,1.62a20.09,20.09,0,0,1-13,4.55,21.57,21.57,0,0,1-10.69-2.62,18.63,18.63,0,0,1-7.32-7.33,23,23,0,0,1,0-21.37,18.67,18.67,0,0,1,7.32-7.32A21.58,21.58,0,0,1,944,693.62a20.29,20.29,0,0,1,13,4.47l-1.72,1.6,3.08,3.31,13.2-12.31-3.08-3.31-1.85,1.73a30.64,30.64,0,0,0-8.23-5.25,37.55,37.55,0,0,0-15.16-3,37.16,37.16,0,0,0-17.91,4.29,31.85,31.85,0,0,0-12.53,11.88,34.64,34.64,0,0,0,0,34.36,32,32,0,0,0,12.53,11.88,37,37,0,0,0,17.82,4.28,38,38,0,0,0,15.2-2.94,30.35,30.35,0,0,0,8.32-5.33l1.82,1.7,3.08-3.3-13.2-12.31Z"/><path class="cls-1" d="M653.61,741.69a35.39,35.39,0,0,1-13.91-13.15,37.8,37.8,0,0,1,0-37.68,35.32,35.32,0,0,1,13.91-13.15,43.94,43.94,0,0,1,39.86,0,36.26,36.26,0,0,1,0,64,44,44,0,0,1-39.86,0Zm28.75-16.63a16.12,16.12,0,0,0,6.17-6.25,19.67,19.67,0,0,0,0-18.23,16,16,0,0,0-6.17-6.24,18.39,18.39,0,0,0-17.59,0,16,16,0,0,0-6.17,6.24,19.67,19.67,0,0,0,0,18.23,16.12,16.12,0,0,0,6.17,6.25,18.39,18.39,0,0,0,17.59,0Z"/><path class="cls-2" d="M655.46,738.71a32.09,32.09,0,0,1-12.62-11.93,34.29,34.29,0,0,1,0-34.17,32.16,32.16,0,0,1,12.62-11.93,39.91,39.91,0,0,1,36.16,0,32.89,32.89,0,0,1,0,58,39.91,39.91,0,0,1-36.16,0Zm28.42-11a18.8,18.8,0,0,0,7.23-7.33,23,23,0,0,0,0-21.37,18.84,18.84,0,0,0-7.23-7.32,21.54,21.54,0,0,0-20.63,0A18.84,18.84,0,0,0,656,699a23,23,0,0,0,0,21.37,18.8,18.8,0,0,0,7.23,7.33,21.62,21.62,0,0,0,20.63,0Z"/><path class="cls-1" d="M580.87,734.21l-18.28-17.05-5.79,6.21,1.56,1.46a17.13,17.13,0,0,1-8.91,2.37,18.33,18.33,0,0,1-9.07-2.22,15.94,15.94,0,0,1-6.21-6.22,19.54,19.54,0,0,1,0-18.13,15.91,15.91,0,0,1,6.21-6.21,18.23,18.23,0,0,1,9.07-2.23,17.3,17.3,0,0,1,8.8,2.28l-1.74,1.62,5.79,6.22,18.29-17-5.8-6.22-1.95,1.82a34,34,0,0,0-7.73-4.68,41.5,41.5,0,0,0-16.7-3.25,41,41,0,0,0-19.76,4.73,35.18,35.18,0,0,0-13.81,13.1,38.17,38.17,0,0,0,0,37.88,35.32,35.32,0,0,0,13.81,13.1,40.84,40.84,0,0,0,19.66,4.72,41.71,41.71,0,0,0,16.75-3.25,33.19,33.19,0,0,0,7.88-4.79l2.14,2,1.14-1.23,0,0,3.4-3.64h0Z"/><path class="cls-2" d="M560.29,724.16l1.74,1.62a20.07,20.07,0,0,1-13,4.55,21.51,21.51,0,0,1-10.68-2.62,18.72,18.72,0,0,1-7.33-7.33A23.1,23.1,0,0,1,531,699a18.76,18.76,0,0,1,7.33-7.32A21.51,21.51,0,0,1,549,689.06a20.27,20.27,0,0,1,13,4.47l-1.72,1.6,3.08,3.3,13.2-12.31-3.08-3.3-1.84,1.73a30.54,30.54,0,0,0-8.24-5.25,40,40,0,0,0-33.07,1.33,32,32,0,0,0-12.53,11.89,34.64,34.64,0,0,0,0,34.36,32.06,32.06,0,0,0,12.53,11.88A37,37,0,0,0,548.15,743a38,38,0,0,0,15.2-2.94,30,30,0,0,0,8.32-5.33l1.82,1.7,3.08-3.3-13.2-12.31Z"/><path class="cls-1" d="M366.58,673.17v3.49H323.44v-3.49h-8.5v25h8.5v-2.82h10.81V738h-1.73v8.5h25V738h-1.79V695.35h10.85v2.82h8.5v-25Zm-10.85,18.92h-3.25V738h-15V695.35h0v-3.26H323.44V679.91h43.14v12.18Z"/><polygon class="cls-2" points="368.6 676.7 368.6 679.87 321.43 679.87 321.43 676.7 316.92 676.7 316.92 679.87 316.92 692.03 316.92 694.75 321.43 694.75 321.43 692.03 337.55 692.03 337.55 739.84 335.99 739.84 335.99 744.36 337.55 744.36 337.55 744.36 352.47 744.36 352.47 744.36 354.04 744.36 354.04 739.84 352.47 739.84 352.47 692.03 368.6 692.03 368.6 694.75 373.11 694.75 373.11 692.03 373.11 679.87 373.11 676.7 368.6 676.7"/><path class="cls-1" d="M629,673.17v3.49H585.89v-3.49h-8.5v25h8.5v-2.82h10.8V738H595v8.5h25V738h-1.78V695.35H629v2.82h8.5v-25Zm-10.84,18.92h-3.26V738H600V695.35h0v-3.26H585.89V679.91H629v12.18Z"/><polygon class="cls-2" points="631.04 676.7 631.04 679.87 583.87 679.87 583.87 676.7 579.36 676.7 579.36 679.87 579.36 692.03 579.36 694.75 583.87 694.75 583.87 692.03 599.99 692.03 599.99 739.84 598.43 739.84 598.43 744.36 599.99 744.36 599.99 744.36 614.92 744.36 614.92 744.36 616.48 744.36 616.48 739.84 614.92 739.84 614.92 692.03 631.04 692.03 631.04 694.75 635.55 694.75 635.55 692.03 635.55 679.87 635.55 676.7 631.04 676.7"/><path class="cls-1" d="M775.54,738h-3.38l-9.42-13.45a23.24,23.24,0,0,0,7.78-7.24,24.11,24.11,0,0,0,3.8-13.66,24.66,24.66,0,0,0-3.75-13.71A24.41,24.41,0,0,0,759.85,681a39.46,39.46,0,0,0-16.4-3.15H709.82v5h.1v3.52h2.39V738h-2.39v8.5h25V738h-1.27V729.7h8.42l8.47,12.09v4.67h25Zm-32.77-43.38q5.4,0,8.22,2.33a9.34,9.34,0,0,1,0,13.36q-2.82,2.37-8.22,2.37H733V694.58Z"/><path class="cls-2" d="M772.53,739.87h-3.15l-11.31-16.22a21,21,0,0,0,13.26-20.36,21.36,21.36,0,0,0-13.12-20.54,35.91,35.91,0,0,0-14.88-2.85H712.82v4.51h2.6v55.46h-2.6v4.51h19.86v-4.51h-2.34V726.42h13.73l9.31,13.45h-.7v4.51h19.85Zm-30-25.34H730.34V692.06H742.5q6.72,0,10.23,2.9t3.5,8.33a10.27,10.27,0,0,1-3.5,8.3Q749.22,714.53,742.5,714.53Z"/><path class="cls-1" d="M897.72,726V729H875.07V686.54H877V678H852v8.5h1.7v52.58h-1.8v8.5h45.86V751h8.5V726Zm0,18.34H876.86v-5.24H856.92V686.54h14.9v45.67h25.9Z"/><polygon class="cls-3" points="899.65 729.34 899.65 732.21 871.83 732.21 871.83 684.4 874.2 684.4 874.2 679.88 871.83 679.88 856.91 679.88 854.34 679.88 854.34 684.4 856.91 684.4 856.91 739.85 854.34 739.85 854.34 744.37 856.91 744.37 856.91 744.37 899.65 744.37 899.65 747.39 904.16 747.39 904.16 744.37 904.16 732.21 904.16 729.34 899.65 729.34"/><path class="cls-1" d="M841.45,726V729H818.8V686.54h1.88V678h-25v8.5h1.71v52.58h-1.8v8.5h45.86V751H850V726Zm0,18.34H820.59v-5.24h-20V686.54h14.9v45.67h25.91Z"/><polygon class="cls-3" points="843.38 729.34 843.38 732.21 815.56 732.21 815.56 684.4 817.92 684.4 817.92 679.88 815.56 679.88 800.63 679.88 798.07 679.88 798.07 684.4 800.63 684.4 800.63 739.85 798.07 739.85 798.07 744.37 800.63 744.37 800.63 744.37 843.38 744.37 843.38 747.39 847.89 747.39 847.89 744.37 847.89 732.21 847.89 729.34 843.38 729.34"/><path class="cls-1" d="M324.23,539h-38v10.1h0v4.29h2.6v60.43q0,16.23-13.84,16.22a19,19,0,0,1-11.24-3.74l2.76-3.28-10-8.36L232.1,643.77l10,8.36,2.41-2.87a44.93,44.93,0,0,0,11.34,7.19,55.51,55.51,0,0,0,22.8,4.63q21.67,0,32.86-11.27T322.65,616V552h1.58Z"/><path class="cls-1" d="M597,651.31a59.08,59.08,0,0,1-23.2-21.94,63,63,0,0,1,0-62.84A59.08,59.08,0,0,1,597,544.59a73.4,73.4,0,0,1,66.49,0,60.49,60.49,0,0,1,0,106.72,73.4,73.4,0,0,1-66.49,0Zm48.26-27.23a27.35,27.35,0,0,0,10.49-10.63,33.43,33.43,0,0,0,0-31,27.35,27.35,0,0,0-10.49-10.63,31.31,31.31,0,0,0-29.94,0,27.28,27.28,0,0,0-10.49,10.63,33.43,33.43,0,0,0,0,31,27.28,27.28,0,0,0,10.49,10.63,31.31,31.31,0,0,0,29.94,0Z"/><path class="cls-3" d="M599.43,647.33A54.77,54.77,0,0,1,578,627a58.37,58.37,0,0,1,0-58.16,54.77,54.77,0,0,1,21.48-20.3,67.9,67.9,0,0,1,61.53,0,56,56,0,0,1,0,98.76,67.9,67.9,0,0,1-61.53,0ZM647.8,628.6a32.1,32.1,0,0,0,12.3-12.46,39.25,39.25,0,0,0,0-36.38,32.1,32.1,0,0,0-12.3-12.46,36.73,36.73,0,0,0-35.12,0,32.05,32.05,0,0,0-12.31,12.46,39.25,39.25,0,0,0,0,36.38,32.05,32.05,0,0,0,12.31,12.46,36.73,36.73,0,0,0,35.12,0Z"/><path class="cls-3" d="M319.6,543.48H289.82v4.88h3V617q0,18.42-15.73,18.43-10.11,0-18.28-9.3l1-1.22L256,621.83l-16.38,19.64,3.75,3.13,1.14-1.37a40.05,40.05,0,0,0,13,9.15,50.31,50.31,0,0,0,20.73,4.21q19.69,0,29.87-10.24t10.16-30.74V548.36h2.15v-4.88Z"/><path class="cls-1" d="M412.67,624.22V628H366V612.29H404.1v4.26h13v-38h-13v3.7H366V568.09H410.6v3.59h13v-38h-13v3.72h-80V658.54h82.06v3.68h13v-38Zm-77.06,29.32V542.4h75v20.69H361v24.16H404.1v20H361V633h51.66v20.53Z"/><polygon class="cls-3" points="416.83 629.8 416.83 632.9 361.18 632.9 361.18 607.16 408 607.16 408 610.73 412.88 610.73 412.88 583.65 408 583.65 408 587.15 361.18 587.15 361.18 563 414.77 563 414.77 566.1 419.65 566.1 419.65 539.02 414.77 539.02 414.77 542.35 335.61 542.35 335.61 653.55 416.83 653.55 416.83 656.88 421.71 656.88 421.71 653.55 421.71 632.9 421.71 629.8 416.83 629.8"/><rect class="cls-1" x="560.32" y="549.57" width="5" height="101.56"/><polygon class="cls-1" points="568.76 552.14 568.76 539.14 528.76 539.14 528.76 552.14 528.84 552.14 497.9 603.63 466.67 551.65 466.67 539.24 426.67 539.24 426.67 552.24 430.15 552.24 430.15 646.63 426.7 646.63 426.7 659.63 466.7 659.63 466.7 646.63 464.24 646.63 464.24 607.55 485.83 643.48 488.83 648.48 506.08 648.48 509.09 643.48 531.38 606.37 531.38 646.63 528.57 646.63 528.57 659.63 568.57 659.63 568.57 646.63 536.38 646.63 536.38 598.04 536.56 597.75 536.38 597.64 536.38 588.6 531.38 588.6 531.38 596.66 503.25 643.48 491.66 643.48 464.24 597.84 464.24 590.1 459.24 590.1 459.24 599.23 459.24 599.23 459.24 599.23 459.24 646.63 435.15 646.63 435.15 552.24 461.18 552.24 494.98 608.49 493.66 610.69 497.8 613.17 497.85 613.26 497.9 613.24 497.95 613.26 498 613.17 502.14 610.69 500.82 608.49 534.67 552.14 568.76 552.14"/><polygon class="cls-3" points="563.58 650.4 560.33 650.4 560.04 548.95 563.57 548.95 563.57 544.07 560.03 544.07 538.9 544.07 532.88 544.07 532.88 548.95 536.01 548.95 497.91 613.18 459.23 548.95 462.34 548.95 462.34 544.07 456.29 544.07 435 544.07 431.65 544.07 431.65 548.95 435 548.95 435 650.4 431.67 650.4 431.67 655.28 435 655.28 459.15 655.28 462.35 655.28 462.35 650.4 459.15 650.4 459.15 589.99 491.72 643.52 503.31 643.52 536.04 588.55 536.19 650.4 532.9 650.4 532.9 655.28 536.2 655.28 536.2 655.28 560.35 655.28 560.35 655.28 563.58 655.28 563.58 650.4"/></svg>